G04 #@! TF.GenerationSoftware,KiCad,Pcbnew,(5.0.0)*
G04 #@! TF.CreationDate,2018-09-19T20:05:00-03:00*
G04 #@! TF.ProjectId,Generic_Bluetooth_Board,47656E657269635F426C7565746F6F74,rev?*
G04 #@! TF.SameCoordinates,Original*
G04 #@! TF.FileFunction,Legend,Top*
G04 #@! TF.FilePolarity,Positive*
%FSLAX46Y46*%
G04 Gerber Fmt 4.6, Leading zero omitted, Abs format (unit mm)*
G04 Created by KiCad (PCBNEW (5.0.0)) date 09/19/18 20:05:00*
%MOMM*%
%LPD*%
G01*
G04 APERTURE LIST*
%ADD10C,0.120000*%
%ADD11C,0.150000*%
G04 APERTURE END LIST*
D10*
X138611800Y-94767352D02*
X138587990Y-94814971D01*
X138587990Y-94886400D01*
X138611800Y-94957828D01*
X138659419Y-95005447D01*
X138707038Y-95029257D01*
X138802276Y-95053066D01*
X138873704Y-95053066D01*
X138968942Y-95029257D01*
X139016561Y-95005447D01*
X139064180Y-94957828D01*
X139087990Y-94886400D01*
X139087990Y-94838780D01*
X139064180Y-94767352D01*
X139040371Y-94743542D01*
X138873704Y-94743542D01*
X138873704Y-94838780D01*
X139087990Y-94529257D02*
X138587990Y-94529257D01*
X139087990Y-94243542D01*
X138587990Y-94243542D01*
X139087990Y-94005447D02*
X138587990Y-94005447D01*
X138587990Y-93886400D01*
X138611800Y-93814971D01*
X138659419Y-93767352D01*
X138707038Y-93743542D01*
X138802276Y-93719733D01*
X138873704Y-93719733D01*
X138968942Y-93743542D01*
X139016561Y-93767352D01*
X139064180Y-93814971D01*
X139087990Y-93886400D01*
X139087990Y-94005447D01*
X165354047Y-109631990D02*
X165639761Y-109631990D01*
X165496904Y-110131990D02*
X165496904Y-109631990D01*
X165782619Y-109679609D02*
X165806428Y-109655800D01*
X165854047Y-109631990D01*
X165973095Y-109631990D01*
X166020714Y-109655800D01*
X166044523Y-109679609D01*
X166068333Y-109727228D01*
X166068333Y-109774847D01*
X166044523Y-109846276D01*
X165758809Y-110131990D01*
X166068333Y-110131990D01*
X161417047Y-109606590D02*
X161702761Y-109606590D01*
X161559904Y-110106590D02*
X161559904Y-109606590D01*
X162131333Y-110106590D02*
X161845619Y-110106590D01*
X161988476Y-110106590D02*
X161988476Y-109606590D01*
X161940857Y-109678019D01*
X161893238Y-109725638D01*
X161845619Y-109749447D01*
X151866647Y-107599990D02*
X152152361Y-107599990D01*
X152009504Y-108099990D02*
X152009504Y-107599990D01*
X152271409Y-107599990D02*
X152604742Y-108099990D01*
X152604742Y-107599990D02*
X152271409Y-108099990D01*
X148582866Y-108125390D02*
X148416200Y-107887295D01*
X148297152Y-108125390D02*
X148297152Y-107625390D01*
X148487628Y-107625390D01*
X148535247Y-107649200D01*
X148559057Y-107673009D01*
X148582866Y-107720628D01*
X148582866Y-107792057D01*
X148559057Y-107839676D01*
X148535247Y-107863485D01*
X148487628Y-107887295D01*
X148297152Y-107887295D01*
X148749533Y-107625390D02*
X149082866Y-108125390D01*
X149082866Y-107625390D02*
X148749533Y-108125390D01*
X151730152Y-111511590D02*
X152039676Y-111511590D01*
X151873009Y-111702066D01*
X151944438Y-111702066D01*
X151992057Y-111725876D01*
X152015866Y-111749685D01*
X152039676Y-111797304D01*
X152039676Y-111916352D01*
X152015866Y-111963971D01*
X151992057Y-111987780D01*
X151944438Y-112011590D01*
X151801580Y-112011590D01*
X151753961Y-111987780D01*
X151730152Y-111963971D01*
X152182533Y-111511590D02*
X152349200Y-112011590D01*
X152515866Y-111511590D01*
X152634914Y-111511590D02*
X152944438Y-111511590D01*
X152777771Y-111702066D01*
X152849200Y-111702066D01*
X152896819Y-111725876D01*
X152920628Y-111749685D01*
X152944438Y-111797304D01*
X152944438Y-111916352D01*
X152920628Y-111963971D01*
X152896819Y-111987780D01*
X152849200Y-112011590D01*
X152706342Y-112011590D01*
X152658723Y-111987780D01*
X152634914Y-111963971D01*
X157124447Y-108639800D02*
X157076828Y-108615990D01*
X157005400Y-108615990D01*
X156933971Y-108639800D01*
X156886352Y-108687419D01*
X156862542Y-108735038D01*
X156838733Y-108830276D01*
X156838733Y-108901704D01*
X156862542Y-108996942D01*
X156886352Y-109044561D01*
X156933971Y-109092180D01*
X157005400Y-109115990D01*
X157053019Y-109115990D01*
X157124447Y-109092180D01*
X157148257Y-109068371D01*
X157148257Y-108901704D01*
X157053019Y-108901704D01*
X157362542Y-109115990D02*
X157362542Y-108615990D01*
X157648257Y-109115990D01*
X157648257Y-108615990D01*
X157886352Y-109115990D02*
X157886352Y-108615990D01*
X158005400Y-108615990D01*
X158076828Y-108639800D01*
X158124447Y-108687419D01*
X158148257Y-108735038D01*
X158172066Y-108830276D01*
X158172066Y-108901704D01*
X158148257Y-108996942D01*
X158124447Y-109044561D01*
X158076828Y-109092180D01*
X158005400Y-109115990D01*
X157886352Y-109115990D01*
X148234447Y-109528800D02*
X148186828Y-109504990D01*
X148115400Y-109504990D01*
X148043971Y-109528800D01*
X147996352Y-109576419D01*
X147972542Y-109624038D01*
X147948733Y-109719276D01*
X147948733Y-109790704D01*
X147972542Y-109885942D01*
X147996352Y-109933561D01*
X148043971Y-109981180D01*
X148115400Y-110004990D01*
X148163019Y-110004990D01*
X148234447Y-109981180D01*
X148258257Y-109957371D01*
X148258257Y-109790704D01*
X148163019Y-109790704D01*
X148472542Y-110004990D02*
X148472542Y-109504990D01*
X148758257Y-110004990D01*
X148758257Y-109504990D01*
X148996352Y-110004990D02*
X148996352Y-109504990D01*
X149115400Y-109504990D01*
X149186828Y-109528800D01*
X149234447Y-109576419D01*
X149258257Y-109624038D01*
X149282066Y-109719276D01*
X149282066Y-109790704D01*
X149258257Y-109885942D01*
X149234447Y-109933561D01*
X149186828Y-109981180D01*
X149115400Y-110004990D01*
X148996352Y-110004990D01*
X161283733Y-111663990D02*
X161450400Y-112163990D01*
X161617066Y-111663990D01*
X162069447Y-112116371D02*
X162045638Y-112140180D01*
X161974209Y-112163990D01*
X161926590Y-112163990D01*
X161855161Y-112140180D01*
X161807542Y-112092561D01*
X161783733Y-112044942D01*
X161759923Y-111949704D01*
X161759923Y-111878276D01*
X161783733Y-111783038D01*
X161807542Y-111735419D01*
X161855161Y-111687800D01*
X161926590Y-111663990D01*
X161974209Y-111663990D01*
X162045638Y-111687800D01*
X162069447Y-111711609D01*
X162569447Y-112116371D02*
X162545638Y-112140180D01*
X162474209Y-112163990D01*
X162426590Y-112163990D01*
X162355161Y-112140180D01*
X162307542Y-112092561D01*
X162283733Y-112044942D01*
X162259923Y-111949704D01*
X162259923Y-111878276D01*
X162283733Y-111783038D01*
X162307542Y-111735419D01*
X162355161Y-111687800D01*
X162426590Y-111663990D01*
X162474209Y-111663990D01*
X162545638Y-111687800D01*
X162569447Y-111711609D01*
X157092733Y-111663990D02*
X157259400Y-112163990D01*
X157426066Y-111663990D01*
X157878447Y-112116371D02*
X157854638Y-112140180D01*
X157783209Y-112163990D01*
X157735590Y-112163990D01*
X157664161Y-112140180D01*
X157616542Y-112092561D01*
X157592733Y-112044942D01*
X157568923Y-111949704D01*
X157568923Y-111878276D01*
X157592733Y-111783038D01*
X157616542Y-111735419D01*
X157664161Y-111687800D01*
X157735590Y-111663990D01*
X157783209Y-111663990D01*
X157854638Y-111687800D01*
X157878447Y-111711609D01*
X158378447Y-112116371D02*
X158354638Y-112140180D01*
X158283209Y-112163990D01*
X158235590Y-112163990D01*
X158164161Y-112140180D01*
X158116542Y-112092561D01*
X158092733Y-112044942D01*
X158068923Y-111949704D01*
X158068923Y-111878276D01*
X158092733Y-111783038D01*
X158116542Y-111735419D01*
X158164161Y-111687800D01*
X158235590Y-111663990D01*
X158283209Y-111663990D01*
X158354638Y-111687800D01*
X158378447Y-111711609D01*
X161417047Y-107649200D02*
X161369428Y-107625390D01*
X161298000Y-107625390D01*
X161226571Y-107649200D01*
X161178952Y-107696819D01*
X161155142Y-107744438D01*
X161131333Y-107839676D01*
X161131333Y-107911104D01*
X161155142Y-108006342D01*
X161178952Y-108053961D01*
X161226571Y-108101580D01*
X161298000Y-108125390D01*
X161345619Y-108125390D01*
X161417047Y-108101580D01*
X161440857Y-108077771D01*
X161440857Y-107911104D01*
X161345619Y-107911104D01*
X161655142Y-108125390D02*
X161655142Y-107625390D01*
X161940857Y-108125390D01*
X161940857Y-107625390D01*
X162178952Y-108125390D02*
X162178952Y-107625390D01*
X162298000Y-107625390D01*
X162369428Y-107649200D01*
X162417047Y-107696819D01*
X162440857Y-107744438D01*
X162464666Y-107839676D01*
X162464666Y-107911104D01*
X162440857Y-108006342D01*
X162417047Y-108053961D01*
X162369428Y-108101580D01*
X162298000Y-108125390D01*
X162178952Y-108125390D01*
X155981447Y-106607800D02*
X155933828Y-106583990D01*
X155862400Y-106583990D01*
X155790971Y-106607800D01*
X155743352Y-106655419D01*
X155719542Y-106703038D01*
X155695733Y-106798276D01*
X155695733Y-106869704D01*
X155719542Y-106964942D01*
X155743352Y-107012561D01*
X155790971Y-107060180D01*
X155862400Y-107083990D01*
X155910019Y-107083990D01*
X155981447Y-107060180D01*
X156005257Y-107036371D01*
X156005257Y-106869704D01*
X155910019Y-106869704D01*
X156219542Y-107083990D02*
X156219542Y-106583990D01*
X156505257Y-107083990D01*
X156505257Y-106583990D01*
X156743352Y-107083990D02*
X156743352Y-106583990D01*
X156862400Y-106583990D01*
X156933828Y-106607800D01*
X156981447Y-106655419D01*
X157005257Y-106703038D01*
X157029066Y-106798276D01*
X157029066Y-106869704D01*
X157005257Y-106964942D01*
X156981447Y-107012561D01*
X156933828Y-107060180D01*
X156862400Y-107083990D01*
X156743352Y-107083990D01*
X165023847Y-92282200D02*
X164976228Y-92258390D01*
X164904800Y-92258390D01*
X164833371Y-92282200D01*
X164785752Y-92329819D01*
X164761942Y-92377438D01*
X164738133Y-92472676D01*
X164738133Y-92544104D01*
X164761942Y-92639342D01*
X164785752Y-92686961D01*
X164833371Y-92734580D01*
X164904800Y-92758390D01*
X164952419Y-92758390D01*
X165023847Y-92734580D01*
X165047657Y-92710771D01*
X165047657Y-92544104D01*
X164952419Y-92544104D01*
X165261942Y-92758390D02*
X165261942Y-92258390D01*
X165547657Y-92758390D01*
X165547657Y-92258390D01*
X165785752Y-92758390D02*
X165785752Y-92258390D01*
X165904800Y-92258390D01*
X165976228Y-92282200D01*
X166023847Y-92329819D01*
X166047657Y-92377438D01*
X166071466Y-92472676D01*
X166071466Y-92544104D01*
X166047657Y-92639342D01*
X166023847Y-92686961D01*
X165976228Y-92734580D01*
X165904800Y-92758390D01*
X165785752Y-92758390D01*
X159866152Y-90851780D02*
X159937580Y-90875590D01*
X160056628Y-90875590D01*
X160104247Y-90851780D01*
X160128057Y-90827971D01*
X160151866Y-90780352D01*
X160151866Y-90732733D01*
X160128057Y-90685114D01*
X160104247Y-90661304D01*
X160056628Y-90637495D01*
X159961390Y-90613685D01*
X159913771Y-90589876D01*
X159889961Y-90566066D01*
X159866152Y-90518447D01*
X159866152Y-90470828D01*
X159889961Y-90423209D01*
X159913771Y-90399400D01*
X159961390Y-90375590D01*
X160080438Y-90375590D01*
X160151866Y-90399400D01*
X160318533Y-90375590D02*
X160437580Y-90875590D01*
X160532819Y-90518447D01*
X160628057Y-90875590D01*
X160747104Y-90375590D01*
X160866152Y-90375590D02*
X161151866Y-90375590D01*
X161009009Y-90875590D02*
X161009009Y-90375590D01*
X161604247Y-90827971D02*
X161580438Y-90851780D01*
X161509009Y-90875590D01*
X161461390Y-90875590D01*
X161389961Y-90851780D01*
X161342342Y-90804161D01*
X161318533Y-90756542D01*
X161294723Y-90661304D01*
X161294723Y-90589876D01*
X161318533Y-90494638D01*
X161342342Y-90447019D01*
X161389961Y-90399400D01*
X161461390Y-90375590D01*
X161509009Y-90375590D01*
X161580438Y-90399400D01*
X161604247Y-90423209D01*
X161818533Y-90875590D02*
X161818533Y-90375590D01*
X162104247Y-90875590D02*
X161889961Y-90589876D01*
X162104247Y-90375590D02*
X161818533Y-90661304D01*
X164878676Y-88746780D02*
X164950104Y-88770590D01*
X165069152Y-88770590D01*
X165116771Y-88746780D01*
X165140580Y-88722971D01*
X165164390Y-88675352D01*
X165164390Y-88627733D01*
X165140580Y-88580114D01*
X165116771Y-88556304D01*
X165069152Y-88532495D01*
X164973914Y-88508685D01*
X164926295Y-88484876D01*
X164902485Y-88461066D01*
X164878676Y-88413447D01*
X164878676Y-88365828D01*
X164902485Y-88318209D01*
X164926295Y-88294400D01*
X164973914Y-88270590D01*
X165092961Y-88270590D01*
X165164390Y-88294400D01*
X165331057Y-88270590D02*
X165450104Y-88770590D01*
X165545342Y-88413447D01*
X165640580Y-88770590D01*
X165759628Y-88270590D01*
X165950104Y-88770590D02*
X165950104Y-88270590D01*
X166069152Y-88270590D01*
X166140580Y-88294400D01*
X166188200Y-88342019D01*
X166212009Y-88389638D01*
X166235819Y-88484876D01*
X166235819Y-88556304D01*
X166212009Y-88651542D01*
X166188200Y-88699161D01*
X166140580Y-88746780D01*
X166069152Y-88770590D01*
X165950104Y-88770590D01*
X166450104Y-88770590D02*
X166450104Y-88270590D01*
X166783438Y-88270590D02*
X166878676Y-88270590D01*
X166926295Y-88294400D01*
X166973914Y-88342019D01*
X166997723Y-88437257D01*
X166997723Y-88603923D01*
X166973914Y-88699161D01*
X166926295Y-88746780D01*
X166878676Y-88770590D01*
X166783438Y-88770590D01*
X166735819Y-88746780D01*
X166688200Y-88699161D01*
X166664390Y-88603923D01*
X166664390Y-88437257D01*
X166688200Y-88342019D01*
X166735819Y-88294400D01*
X166783438Y-88270590D01*
X164811152Y-84130390D02*
X165120676Y-84130390D01*
X164954009Y-84320866D01*
X165025438Y-84320866D01*
X165073057Y-84344676D01*
X165096866Y-84368485D01*
X165120676Y-84416104D01*
X165120676Y-84535152D01*
X165096866Y-84582771D01*
X165073057Y-84606580D01*
X165025438Y-84630390D01*
X164882580Y-84630390D01*
X164834961Y-84606580D01*
X164811152Y-84582771D01*
X165263533Y-84130390D02*
X165430200Y-84630390D01*
X165596866Y-84130390D01*
X165715914Y-84130390D02*
X166025438Y-84130390D01*
X165858771Y-84320866D01*
X165930200Y-84320866D01*
X165977819Y-84344676D01*
X166001628Y-84368485D01*
X166025438Y-84416104D01*
X166025438Y-84535152D01*
X166001628Y-84582771D01*
X165977819Y-84606580D01*
X165930200Y-84630390D01*
X165787342Y-84630390D01*
X165739723Y-84606580D01*
X165715914Y-84582771D01*
X160411409Y-86763990D02*
X160244742Y-86525895D01*
X160125695Y-86763990D02*
X160125695Y-86263990D01*
X160316171Y-86263990D01*
X160363790Y-86287800D01*
X160387600Y-86311609D01*
X160411409Y-86359228D01*
X160411409Y-86430657D01*
X160387600Y-86478276D01*
X160363790Y-86502085D01*
X160316171Y-86525895D01*
X160125695Y-86525895D01*
X160625695Y-86502085D02*
X160792361Y-86502085D01*
X160863790Y-86763990D02*
X160625695Y-86763990D01*
X160625695Y-86263990D01*
X160863790Y-86263990D01*
X161054266Y-86740180D02*
X161125695Y-86763990D01*
X161244742Y-86763990D01*
X161292361Y-86740180D01*
X161316171Y-86716371D01*
X161339980Y-86668752D01*
X161339980Y-86621133D01*
X161316171Y-86573514D01*
X161292361Y-86549704D01*
X161244742Y-86525895D01*
X161149504Y-86502085D01*
X161101885Y-86478276D01*
X161078076Y-86454466D01*
X161054266Y-86406847D01*
X161054266Y-86359228D01*
X161078076Y-86311609D01*
X161101885Y-86287800D01*
X161149504Y-86263990D01*
X161268552Y-86263990D01*
X161339980Y-86287800D01*
X161554266Y-86502085D02*
X161720933Y-86502085D01*
X161792361Y-86763990D02*
X161554266Y-86763990D01*
X161554266Y-86263990D01*
X161792361Y-86263990D01*
X161935219Y-86263990D02*
X162220933Y-86263990D01*
X162078076Y-86763990D02*
X162078076Y-86263990D01*
X134371590Y-98812266D02*
X134871590Y-98645600D01*
X134371590Y-98478933D01*
X134823971Y-98026552D02*
X134847780Y-98050361D01*
X134871590Y-98121790D01*
X134871590Y-98169409D01*
X134847780Y-98240838D01*
X134800161Y-98288457D01*
X134752542Y-98312266D01*
X134657304Y-98336076D01*
X134585876Y-98336076D01*
X134490638Y-98312266D01*
X134443019Y-98288457D01*
X134395400Y-98240838D01*
X134371590Y-98169409D01*
X134371590Y-98121790D01*
X134395400Y-98050361D01*
X134419209Y-98026552D01*
X134823971Y-97526552D02*
X134847780Y-97550361D01*
X134871590Y-97621790D01*
X134871590Y-97669409D01*
X134847780Y-97740838D01*
X134800161Y-97788457D01*
X134752542Y-97812266D01*
X134657304Y-97836076D01*
X134585876Y-97836076D01*
X134490638Y-97812266D01*
X134443019Y-97788457D01*
X134395400Y-97740838D01*
X134371590Y-97669409D01*
X134371590Y-97621790D01*
X134395400Y-97550361D01*
X134419209Y-97526552D01*
X137082980Y-98944038D02*
X137106790Y-98872609D01*
X137106790Y-98753561D01*
X137082980Y-98705942D01*
X137059171Y-98682133D01*
X137011552Y-98658323D01*
X136963933Y-98658323D01*
X136916314Y-98682133D01*
X136892504Y-98705942D01*
X136868695Y-98753561D01*
X136844885Y-98848800D01*
X136821076Y-98896419D01*
X136797266Y-98920228D01*
X136749647Y-98944038D01*
X136702028Y-98944038D01*
X136654409Y-98920228D01*
X136630600Y-98896419D01*
X136606790Y-98848800D01*
X136606790Y-98729752D01*
X136630600Y-98658323D01*
X137059171Y-98158323D02*
X137082980Y-98182133D01*
X137106790Y-98253561D01*
X137106790Y-98301180D01*
X137082980Y-98372609D01*
X137035361Y-98420228D01*
X136987742Y-98444038D01*
X136892504Y-98467847D01*
X136821076Y-98467847D01*
X136725838Y-98444038D01*
X136678219Y-98420228D01*
X136630600Y-98372609D01*
X136606790Y-98301180D01*
X136606790Y-98253561D01*
X136630600Y-98182133D01*
X136654409Y-98158323D01*
X137106790Y-97705942D02*
X137106790Y-97944038D01*
X136606790Y-97944038D01*
X135101780Y-95044342D02*
X135125590Y-94972914D01*
X135125590Y-94853866D01*
X135101780Y-94806247D01*
X135077971Y-94782438D01*
X135030352Y-94758628D01*
X134982733Y-94758628D01*
X134935114Y-94782438D01*
X134911304Y-94806247D01*
X134887495Y-94853866D01*
X134863685Y-94949104D01*
X134839876Y-94996723D01*
X134816066Y-95020533D01*
X134768447Y-95044342D01*
X134720828Y-95044342D01*
X134673209Y-95020533D01*
X134649400Y-94996723D01*
X134625590Y-94949104D01*
X134625590Y-94830057D01*
X134649400Y-94758628D01*
X135125590Y-94544342D02*
X134625590Y-94544342D01*
X134625590Y-94425295D01*
X134649400Y-94353866D01*
X134697019Y-94306247D01*
X134744638Y-94282438D01*
X134839876Y-94258628D01*
X134911304Y-94258628D01*
X135006542Y-94282438D01*
X135054161Y-94306247D01*
X135101780Y-94353866D01*
X135125590Y-94425295D01*
X135125590Y-94544342D01*
X134982733Y-94068152D02*
X134982733Y-93830057D01*
X135125590Y-94115771D02*
X134625590Y-93949104D01*
X135125590Y-93782438D01*
G04 #@! TO.C,SW1*
X139758400Y-100549400D02*
X134358400Y-100549400D01*
X140398400Y-112099400D02*
X134358400Y-112099400D01*
G04 #@! TO.C,C1*
X143727017Y-93506937D02*
X143373463Y-93153383D01*
X142708783Y-93818063D02*
X143062337Y-94171617D01*
G04 #@! TO.C,C2*
X141946783Y-94580063D02*
X142300337Y-94933617D01*
X142965017Y-94268937D02*
X142611463Y-93915383D01*
G04 #@! TO.C,C3*
X143773537Y-91591283D02*
X143419983Y-91944837D01*
X144084663Y-92609517D02*
X144438217Y-92255963D01*
G04 #@! TO.C,C4*
X144846663Y-93371517D02*
X145200217Y-93017963D01*
X144535537Y-92353283D02*
X144181983Y-92706837D01*
G04 #@! TO.C,C5*
X151349063Y-90044117D02*
X151702617Y-89690563D01*
X151037937Y-89025883D02*
X150684383Y-89379437D01*
G04 #@! TO.C,C6*
X153063563Y-88329617D02*
X153417117Y-87976063D01*
X152752437Y-87311383D02*
X152398883Y-87664937D01*
G04 #@! TO.C,C7*
X148906383Y-90516063D02*
X149259937Y-90869617D01*
X149924617Y-90204937D02*
X149571063Y-89851383D01*
G04 #@! TO.C,C8*
X148144383Y-91278063D02*
X148497937Y-91631617D01*
X149162617Y-90966937D02*
X148809063Y-90613383D01*
G04 #@! TO.C,C9*
X154593937Y-89660883D02*
X154240383Y-90014437D01*
X154905063Y-90679117D02*
X155258617Y-90325563D01*
G04 #@! TO.C,C10*
X155165437Y-90676883D02*
X154811883Y-91030437D01*
X155476563Y-91695117D02*
X155830117Y-91341563D01*
G04 #@! TO.C,C11*
X153732383Y-93183063D02*
X154085937Y-93536617D01*
X154750617Y-92871937D02*
X154397063Y-92518383D01*
G04 #@! TO.C,C12*
X156973117Y-86585437D02*
X156619563Y-86231883D01*
X155954883Y-86896563D02*
X156308437Y-87250117D01*
G04 #@! TO.C,C13*
X157547500Y-88735000D02*
X158047500Y-88735000D01*
X158047500Y-87795000D02*
X157547500Y-87795000D01*
G04 #@! TO.C,C14*
X155921063Y-85662617D02*
X156274617Y-85309063D01*
X155609937Y-84644383D02*
X155256383Y-84997937D01*
G04 #@! TO.C,C15*
X153127063Y-84900617D02*
X153480617Y-84547063D01*
X152815937Y-83882383D02*
X152462383Y-84235937D01*
G04 #@! TO.C,C16*
X155984563Y-95949617D02*
X156338117Y-95596063D01*
X155673437Y-94931383D02*
X155319883Y-95284937D01*
G04 #@! TO.C,C17*
X156435437Y-95693383D02*
X156081883Y-96046937D01*
X156746563Y-96711617D02*
X157100117Y-96358063D01*
G04 #@! TO.C,C18*
X146579400Y-101942800D02*
X146079400Y-101942800D01*
X146079400Y-102882800D02*
X146579400Y-102882800D01*
G04 #@! TO.C,C19*
X146079400Y-101790600D02*
X146579400Y-101790600D01*
X146579400Y-100850600D02*
X146079400Y-100850600D01*
G04 #@! TO.C,C20*
X155673437Y-93280383D02*
X155319883Y-93633937D01*
X155984563Y-94298617D02*
X156338117Y-93945063D01*
G04 #@! TO.C,C21*
X160931237Y-100481283D02*
X160577683Y-100834837D01*
X161242363Y-101499517D02*
X161595917Y-101145963D01*
G04 #@! TO.C,C22*
X158975437Y-94169383D02*
X158621883Y-94522937D01*
X159286563Y-95187617D02*
X159640117Y-94834063D01*
G04 #@! TO.C,C23*
X150787000Y-104448800D02*
X150787000Y-104948800D01*
X151727000Y-104948800D02*
X151727000Y-104448800D01*
G04 #@! TO.C,C24*
X133451500Y-90872500D02*
X133451500Y-91372500D01*
X134391500Y-91372500D02*
X134391500Y-90872500D01*
G04 #@! TO.C,C25*
X140847000Y-91148000D02*
X141347000Y-91148000D01*
X141347000Y-90208000D02*
X140847000Y-90208000D01*
G04 #@! TO.C,C26*
X156211117Y-102054037D02*
X155857563Y-101700483D01*
X155192883Y-102365163D02*
X155546437Y-102718717D01*
D11*
G04 #@! TO.C,L6*
X138914000Y-88150500D02*
X135914000Y-88150500D01*
X135914000Y-84950500D02*
X138914000Y-84950500D01*
X140014000Y-84950500D02*
X140764000Y-84950500D01*
X140764000Y-84950500D02*
X140764000Y-85600500D01*
D10*
G04 #@! TO.C,R1*
X134971600Y-99317400D02*
X134471600Y-99317400D01*
X134471600Y-100377400D02*
X134971600Y-100377400D01*
G04 #@! TO.C,R2*
X144975943Y-95407610D02*
X144622390Y-95054057D01*
X143872857Y-95803590D02*
X144226410Y-96157143D01*
G04 #@! TO.C,R3*
X144761857Y-94914590D02*
X145115410Y-95268143D01*
X145864943Y-94518610D02*
X145511390Y-94165057D01*
G04 #@! TO.C,R4*
X143401143Y-97185610D02*
X143047590Y-96832057D01*
X142298057Y-97581590D02*
X142651610Y-97935143D01*
G04 #@! TO.C,R5*
X156010800Y-110867600D02*
X156510800Y-110867600D01*
X156510800Y-109807600D02*
X156010800Y-109807600D01*
G04 #@! TO.C,R6*
X156510800Y-111026800D02*
X156010800Y-111026800D01*
X156010800Y-112086800D02*
X156510800Y-112086800D01*
G04 #@! TO.C,R7*
X155897943Y-99624010D02*
X155544390Y-99270457D01*
X154794857Y-100019990D02*
X155148410Y-100373543D01*
G04 #@! TO.C,R8*
X153931257Y-100883590D02*
X154284810Y-101237143D01*
X155034343Y-100487610D02*
X154680790Y-100134057D01*
G04 #@! TO.C,R9*
X154170743Y-101351210D02*
X153817190Y-100997657D01*
X153067657Y-101747190D02*
X153421210Y-102100743D01*
G04 #@! TO.C,R10*
X149711000Y-104321800D02*
X149711000Y-104821800D01*
X150771000Y-104821800D02*
X150771000Y-104321800D01*
G04 #@! TO.C,R11*
X155963257Y-101594790D02*
X156316810Y-101948343D01*
X157066343Y-101198810D02*
X156712790Y-100845257D01*
G04 #@! TO.C,R12*
X141055500Y-92325000D02*
X141055500Y-91825000D01*
X139995500Y-91825000D02*
X139995500Y-92325000D01*
G04 #@! TO.C,R13*
X141202000Y-91825000D02*
X141202000Y-92325000D01*
X142262000Y-92325000D02*
X142262000Y-91825000D01*
D11*
G04 #@! TO.C,U1*
X150495000Y-93188689D02*
X150123769Y-93559920D01*
X154207311Y-96901000D02*
X153836080Y-97272231D01*
X150495000Y-100613311D02*
X150866231Y-100242080D01*
X146782689Y-96901000D02*
X147153920Y-96529769D01*
X154207311Y-96901000D02*
X153836080Y-96529769D01*
X150495000Y-100613311D02*
X150123769Y-100242080D01*
X150495000Y-93188689D02*
X150866231Y-93559920D01*
D10*
G04 #@! TO.C,U3*
X138140000Y-89070500D02*
X135190000Y-89070500D01*
X136340000Y-92290500D02*
X138140000Y-92290500D01*
G04 #@! TO.C,Y1*
X151908516Y-87580921D02*
X150953921Y-88535516D01*
X150671079Y-86343484D02*
X149716484Y-87298079D01*
G04 #@! TO.C,Y2*
X160020698Y-94734321D02*
X156202321Y-98552698D01*
X163202679Y-97916302D02*
X160020698Y-94734321D01*
G04 #@! TO.C,R14*
X162403600Y-104118000D02*
X161903600Y-104118000D01*
X161903600Y-105178000D02*
X162403600Y-105178000D01*
G04 #@! TO.C,R15*
X162403600Y-102898800D02*
X161903600Y-102898800D01*
X161903600Y-103958800D02*
X162403600Y-103958800D01*
G04 #@! TO.C,J1*
X153092600Y-111540000D02*
X153092600Y-111915000D01*
X155212600Y-107795000D02*
X155212600Y-108170000D01*
X155212600Y-108170000D02*
X156442600Y-108170000D01*
X153092600Y-107795000D02*
X153092600Y-110170000D01*
X155212600Y-109540000D02*
X155212600Y-111915000D01*
X153092600Y-111915000D02*
X155212600Y-111915000D01*
X153092600Y-107795000D02*
X155212600Y-107795000D01*
G04 #@! TO.C,J2*
X162363600Y-92245400D02*
X162363600Y-94620400D01*
X162363600Y-88245400D02*
X162363600Y-90875400D01*
X162363600Y-94245400D02*
X162363600Y-94620400D01*
X164483600Y-84500400D02*
X164483600Y-84875400D01*
X164483600Y-84875400D02*
X165713600Y-84875400D01*
X162363600Y-84500400D02*
X162363600Y-86875400D01*
X164483600Y-90245400D02*
X164483600Y-92875400D01*
X164483600Y-86245400D02*
X164483600Y-88875400D01*
X162363600Y-94620400D02*
X164483600Y-94620400D01*
X162363600Y-84500400D02*
X164483600Y-84500400D01*
G04 #@! TO.C,C27*
X161040000Y-84798000D02*
X161540000Y-84798000D01*
X161540000Y-83858000D02*
X161040000Y-83858000D01*
G04 #@! TO.C,R16*
X161040000Y-86001000D02*
X161540000Y-86001000D01*
X161540000Y-84941000D02*
X161040000Y-84941000D01*
G04 #@! TO.C,R17*
X147875400Y-111248000D02*
X147875400Y-110748000D01*
X146815400Y-110748000D02*
X146815400Y-111248000D01*
D11*
G04 #@! TO.C,U4*
X142924800Y-110525400D02*
X142924800Y-111875400D01*
X146074800Y-110525400D02*
X146074800Y-105875400D01*
X142824800Y-110525400D02*
X142824800Y-105875400D01*
X146074800Y-110525400D02*
X145874800Y-110525400D01*
X146074800Y-105875400D02*
X145874800Y-105875400D01*
X142824800Y-105875400D02*
X143024800Y-105875400D01*
X142824800Y-110525400D02*
X142924800Y-110525400D01*
D10*
G04 #@! TO.C,R18*
X140821000Y-110450400D02*
X140821000Y-110950400D01*
X141881000Y-110950400D02*
X141881000Y-110450400D01*
G04 #@! TO.C,J4*
X138540200Y-97376800D02*
X140915200Y-97376800D01*
X134540200Y-97376800D02*
X137170200Y-97376800D01*
X136540200Y-95256800D02*
X139170200Y-95256800D01*
X140540200Y-95256800D02*
X140915200Y-95256800D01*
X132795200Y-97376800D02*
X133170200Y-97376800D01*
X133170200Y-97376800D02*
X133170200Y-98606800D01*
X132795200Y-95256800D02*
X135170200Y-95256800D01*
X140915200Y-97376800D02*
X140915200Y-95256800D01*
X132795200Y-97376800D02*
X132795200Y-95256800D01*
G04 #@! TO.C,J6*
X149460400Y-107498600D02*
X149460400Y-110128600D01*
X151580400Y-109498600D02*
X151580400Y-111873600D01*
X151580400Y-111498600D02*
X151580400Y-111873600D01*
X149460400Y-105753600D02*
X149460400Y-106128600D01*
X149460400Y-106128600D02*
X148230400Y-106128600D01*
X151580400Y-105753600D02*
X151580400Y-108128600D01*
X149460400Y-111873600D02*
X151580400Y-111873600D01*
X149460400Y-105753600D02*
X151580400Y-105753600D01*
G04 #@! TO.C,J3*
X158477400Y-107549400D02*
X158477400Y-110179400D01*
X160597400Y-109549400D02*
X160597400Y-111924400D01*
X160597400Y-111549400D02*
X160597400Y-111924400D01*
X158477400Y-105804400D02*
X158477400Y-106179400D01*
X158477400Y-106179400D02*
X157247400Y-106179400D01*
X160597400Y-105804400D02*
X160597400Y-108179400D01*
X158477400Y-111924400D02*
X160597400Y-111924400D01*
X158477400Y-105804400D02*
X160597400Y-105804400D01*
G04 #@! TO.C,J5*
X162719200Y-105804400D02*
X164839200Y-105804400D01*
X162719200Y-111924400D02*
X164839200Y-111924400D01*
X164839200Y-105804400D02*
X164839200Y-108179400D01*
X162719200Y-106179400D02*
X161489200Y-106179400D01*
X162719200Y-105804400D02*
X162719200Y-106179400D01*
X164839200Y-111549400D02*
X164839200Y-111924400D01*
X164839200Y-109549400D02*
X164839200Y-111924400D01*
X162719200Y-107549400D02*
X162719200Y-110179400D01*
G04 #@! TO.C,L1*
X145979010Y-92461118D02*
X145130482Y-91612590D01*
X146374990Y-90368082D02*
X147223518Y-91216610D01*
G04 #@! TO.C,D1*
X142843785Y-100116892D02*
X141358861Y-98631968D01*
X143550892Y-99409785D02*
X142065968Y-97924861D01*
X142843785Y-100116892D02*
X143550892Y-99409785D01*
G04 #@! TO.C,U2*
X154878000Y-103742000D02*
X153478000Y-103742000D01*
X153478000Y-106062000D02*
X155378000Y-106062000D01*
G04 #@! TO.C,SW1*
X138366600Y-100166457D02*
X138452314Y-100195028D01*
X138595171Y-100195028D01*
X138652314Y-100166457D01*
X138680885Y-100137885D01*
X138709457Y-100080742D01*
X138709457Y-100023600D01*
X138680885Y-99966457D01*
X138652314Y-99937885D01*
X138595171Y-99909314D01*
X138480885Y-99880742D01*
X138423742Y-99852171D01*
X138395171Y-99823600D01*
X138366600Y-99766457D01*
X138366600Y-99709314D01*
X138395171Y-99652171D01*
X138423742Y-99623600D01*
X138480885Y-99595028D01*
X138623742Y-99595028D01*
X138709457Y-99623600D01*
X138909457Y-99595028D02*
X139052314Y-100195028D01*
X139166600Y-99766457D01*
X139280885Y-100195028D01*
X139423742Y-99595028D01*
X139966600Y-100195028D02*
X139623742Y-100195028D01*
X139795171Y-100195028D02*
X139795171Y-99595028D01*
X139738028Y-99680742D01*
X139680885Y-99737885D01*
X139623742Y-99766457D01*
G04 #@! TO.C,AE1*
X164755600Y-79297200D02*
X165041314Y-79297200D01*
X164698457Y-79468628D02*
X164898457Y-78868628D01*
X165098457Y-79468628D01*
X165298457Y-79154342D02*
X165498457Y-79154342D01*
X165584171Y-79468628D02*
X165298457Y-79468628D01*
X165298457Y-78868628D01*
X165584171Y-78868628D01*
X166155600Y-79468628D02*
X165812742Y-79468628D01*
X165984171Y-79468628D02*
X165984171Y-78868628D01*
X165927028Y-78954342D01*
X165869885Y-79011485D01*
X165812742Y-79040057D01*
G04 #@! TO.C,C1*
X141154165Y-93375012D02*
X141113759Y-93375012D01*
X141032947Y-93334606D01*
X140992541Y-93294199D01*
X140952134Y-93213387D01*
X140952134Y-93132575D01*
X140972337Y-93071966D01*
X141032947Y-92970951D01*
X141093556Y-92910342D01*
X141194571Y-92849732D01*
X141255180Y-92829529D01*
X141335992Y-92829529D01*
X141416805Y-92869935D01*
X141457211Y-92910342D01*
X141497617Y-92991154D01*
X141497617Y-93031560D01*
X141517820Y-93819479D02*
X141275383Y-93577042D01*
X141396602Y-93698261D02*
X141820866Y-93273996D01*
X141719850Y-93294199D01*
X141639038Y-93294199D01*
X141578429Y-93273996D01*
G04 #@! TO.C,C2*
X140569966Y-93933812D02*
X140529560Y-93933812D01*
X140448748Y-93893406D01*
X140408342Y-93852999D01*
X140367935Y-93772187D01*
X140367935Y-93691375D01*
X140388138Y-93630766D01*
X140448748Y-93529751D01*
X140509357Y-93469142D01*
X140610372Y-93408532D01*
X140670981Y-93388329D01*
X140751793Y-93388329D01*
X140832606Y-93428735D01*
X140873012Y-93469142D01*
X140913418Y-93549954D01*
X140913418Y-93590360D01*
X141075042Y-93751984D02*
X141115448Y-93751984D01*
X141176057Y-93772187D01*
X141277073Y-93873203D01*
X141297276Y-93933812D01*
X141297276Y-93974218D01*
X141277073Y-94034827D01*
X141236667Y-94075233D01*
X141155854Y-94115639D01*
X140670981Y-94115639D01*
X140933621Y-94378279D01*
G04 #@! TO.C,C3*
X143755912Y-91243133D02*
X143755912Y-91283539D01*
X143715506Y-91364351D01*
X143675099Y-91404757D01*
X143594287Y-91445164D01*
X143513475Y-91445164D01*
X143452866Y-91424961D01*
X143351851Y-91364351D01*
X143291242Y-91303742D01*
X143230632Y-91202727D01*
X143210429Y-91142118D01*
X143210429Y-91061306D01*
X143250835Y-90980493D01*
X143291242Y-90940087D01*
X143372054Y-90899681D01*
X143412460Y-90899681D01*
X143513475Y-90717854D02*
X143776115Y-90455214D01*
X143796318Y-90758260D01*
X143856927Y-90697651D01*
X143917536Y-90677448D01*
X143957942Y-90677448D01*
X144018551Y-90697651D01*
X144119567Y-90798666D01*
X144139770Y-90859275D01*
X144139770Y-90899681D01*
X144119567Y-90960290D01*
X143998348Y-91081509D01*
X143937739Y-91101712D01*
X143897333Y-91101712D01*
G04 #@! TO.C,C4*
X145851412Y-93338633D02*
X145851412Y-93379039D01*
X145811006Y-93459851D01*
X145770599Y-93500257D01*
X145689787Y-93540664D01*
X145608975Y-93540664D01*
X145548366Y-93520461D01*
X145447351Y-93459851D01*
X145386742Y-93399242D01*
X145326132Y-93298227D01*
X145305929Y-93237618D01*
X145305929Y-93156806D01*
X145346335Y-93075993D01*
X145386742Y-93035587D01*
X145467554Y-92995181D01*
X145507960Y-92995181D01*
X145972630Y-92732542D02*
X146255473Y-93015384D01*
X145709990Y-92671932D02*
X145912021Y-93075993D01*
X146174661Y-92813354D01*
G04 #@! TO.C,C5*
X151972812Y-90455733D02*
X151972812Y-90496139D01*
X151932406Y-90576951D01*
X151891999Y-90617357D01*
X151811187Y-90657764D01*
X151730375Y-90657764D01*
X151669766Y-90637561D01*
X151568751Y-90576951D01*
X151508142Y-90516342D01*
X151447532Y-90415327D01*
X151427329Y-90354718D01*
X151427329Y-90273906D01*
X151467735Y-90193093D01*
X151508142Y-90152687D01*
X151588954Y-90112281D01*
X151629360Y-90112281D01*
X151972812Y-89688017D02*
X151770781Y-89890048D01*
X151952609Y-90112281D01*
X151952609Y-90071875D01*
X151972812Y-90011266D01*
X152073827Y-89910251D01*
X152134436Y-89890048D01*
X152174842Y-89890048D01*
X152235451Y-89910251D01*
X152336467Y-90011266D01*
X152356670Y-90071875D01*
X152356670Y-90112281D01*
X152336467Y-90172890D01*
X152235451Y-90273906D01*
X152174842Y-90294109D01*
X152134436Y-90294109D01*
G04 #@! TO.C,C6*
X153687312Y-88741233D02*
X153687312Y-88781639D01*
X153646906Y-88862451D01*
X153606499Y-88902857D01*
X153525687Y-88943264D01*
X153444875Y-88943264D01*
X153384266Y-88923061D01*
X153283251Y-88862451D01*
X153222642Y-88801842D01*
X153162032Y-88700827D01*
X153141829Y-88640218D01*
X153141829Y-88559406D01*
X153182235Y-88478593D01*
X153222642Y-88438187D01*
X153303454Y-88397781D01*
X153343860Y-88397781D01*
X153667109Y-87993720D02*
X153586296Y-88074532D01*
X153566093Y-88135142D01*
X153566093Y-88175548D01*
X153586296Y-88276563D01*
X153646906Y-88377578D01*
X153808530Y-88539203D01*
X153869139Y-88559406D01*
X153909545Y-88559406D01*
X153970154Y-88539203D01*
X154050967Y-88458390D01*
X154071170Y-88397781D01*
X154071170Y-88357375D01*
X154050967Y-88296766D01*
X153949951Y-88195751D01*
X153889342Y-88175548D01*
X153848936Y-88175548D01*
X153788327Y-88195751D01*
X153707515Y-88276563D01*
X153687312Y-88337172D01*
X153687312Y-88377578D01*
X153707515Y-88438187D01*
G04 #@! TO.C,C7*
X147796266Y-89234812D02*
X147755860Y-89234812D01*
X147675048Y-89194406D01*
X147634642Y-89153999D01*
X147594235Y-89073187D01*
X147594235Y-88992375D01*
X147614438Y-88931766D01*
X147675048Y-88830751D01*
X147735657Y-88770142D01*
X147836672Y-88709532D01*
X147897281Y-88689329D01*
X147978093Y-88689329D01*
X148058906Y-88729735D01*
X148099312Y-88770142D01*
X148139718Y-88850954D01*
X148139718Y-88891360D01*
X148321545Y-88992375D02*
X148604388Y-89275218D01*
X147998296Y-89517654D01*
G04 #@! TO.C,C8*
X147161266Y-89933312D02*
X147120860Y-89933312D01*
X147040048Y-89892906D01*
X146999642Y-89852499D01*
X146959235Y-89771687D01*
X146959235Y-89690875D01*
X146979438Y-89630266D01*
X147040048Y-89529251D01*
X147100657Y-89468642D01*
X147201672Y-89408032D01*
X147262281Y-89387829D01*
X147343093Y-89387829D01*
X147423906Y-89428235D01*
X147464312Y-89468642D01*
X147504718Y-89549454D01*
X147504718Y-89589860D01*
X147605733Y-89973718D02*
X147585530Y-89913109D01*
X147585530Y-89872703D01*
X147605733Y-89812093D01*
X147625936Y-89791890D01*
X147686545Y-89771687D01*
X147726951Y-89771687D01*
X147787561Y-89791890D01*
X147868373Y-89872703D01*
X147888576Y-89933312D01*
X147888576Y-89973718D01*
X147868373Y-90034327D01*
X147848170Y-90054530D01*
X147787561Y-90074733D01*
X147747154Y-90074733D01*
X147686545Y-90054530D01*
X147605733Y-89973718D01*
X147545124Y-89953515D01*
X147504718Y-89953515D01*
X147444109Y-89973718D01*
X147363296Y-90054530D01*
X147343093Y-90115139D01*
X147343093Y-90155545D01*
X147363296Y-90216154D01*
X147444109Y-90296967D01*
X147504718Y-90317170D01*
X147545124Y-90317170D01*
X147605733Y-90296967D01*
X147686545Y-90216154D01*
X147706748Y-90155545D01*
X147706748Y-90115139D01*
X147686545Y-90054530D01*
G04 #@! TO.C,C9*
X154068312Y-89820733D02*
X154068312Y-89861139D01*
X154027906Y-89941951D01*
X153987499Y-89982357D01*
X153906687Y-90022764D01*
X153825875Y-90022764D01*
X153765266Y-90002561D01*
X153664251Y-89941951D01*
X153603642Y-89881342D01*
X153543032Y-89780327D01*
X153522829Y-89719718D01*
X153522829Y-89638906D01*
X153563235Y-89558093D01*
X153603642Y-89517687D01*
X153684454Y-89477281D01*
X153724860Y-89477281D01*
X154310748Y-89659109D02*
X154391561Y-89578296D01*
X154411764Y-89517687D01*
X154411764Y-89477281D01*
X154391561Y-89376266D01*
X154330951Y-89275251D01*
X154169327Y-89113626D01*
X154108718Y-89093423D01*
X154068312Y-89093423D01*
X154007703Y-89113626D01*
X153926890Y-89194438D01*
X153906687Y-89255048D01*
X153906687Y-89295454D01*
X153926890Y-89356063D01*
X154027906Y-89457078D01*
X154088515Y-89477281D01*
X154128921Y-89477281D01*
X154189530Y-89457078D01*
X154270342Y-89376266D01*
X154290545Y-89315657D01*
X154290545Y-89275251D01*
X154270342Y-89214642D01*
G04 #@! TO.C,C10*
X155595235Y-89096281D02*
X155554829Y-89096281D01*
X155474017Y-89055875D01*
X155433611Y-89015469D01*
X155393205Y-88934657D01*
X155393205Y-88853845D01*
X155413408Y-88793235D01*
X155474017Y-88692220D01*
X155534626Y-88631611D01*
X155635642Y-88571002D01*
X155696251Y-88550799D01*
X155777063Y-88550799D01*
X155857875Y-88591205D01*
X155898281Y-88631611D01*
X155938687Y-88712423D01*
X155938687Y-88752829D01*
X155958890Y-89540748D02*
X155716454Y-89298312D01*
X155837672Y-89419530D02*
X156261936Y-88995266D01*
X156160921Y-89015469D01*
X156080109Y-89015469D01*
X156019500Y-88995266D01*
X156645794Y-89379124D02*
X156686200Y-89419530D01*
X156706403Y-89480139D01*
X156706403Y-89520545D01*
X156686200Y-89581154D01*
X156625591Y-89682170D01*
X156524576Y-89783185D01*
X156423561Y-89843794D01*
X156362951Y-89863997D01*
X156322545Y-89863997D01*
X156261936Y-89843794D01*
X156221530Y-89803388D01*
X156201327Y-89742779D01*
X156201327Y-89702373D01*
X156221530Y-89641764D01*
X156282139Y-89540748D01*
X156383154Y-89439733D01*
X156484170Y-89379124D01*
X156544779Y-89358921D01*
X156585185Y-89358921D01*
X156645794Y-89379124D01*
G04 #@! TO.C,C11*
X153118735Y-93604781D02*
X153078329Y-93604781D01*
X152997517Y-93564375D01*
X152957111Y-93523969D01*
X152916705Y-93443157D01*
X152916705Y-93362345D01*
X152936908Y-93301735D01*
X152997517Y-93200720D01*
X153058126Y-93140111D01*
X153159142Y-93079502D01*
X153219751Y-93059299D01*
X153300563Y-93059299D01*
X153381375Y-93099705D01*
X153421781Y-93140111D01*
X153462187Y-93220923D01*
X153462187Y-93261329D01*
X153482390Y-94049248D02*
X153239954Y-93806812D01*
X153361172Y-93928030D02*
X153785436Y-93503766D01*
X153684421Y-93523969D01*
X153603609Y-93523969D01*
X153543000Y-93503766D01*
X153886451Y-94453309D02*
X153644015Y-94210873D01*
X153765233Y-94332091D02*
X154189497Y-93907827D01*
X154088482Y-93928030D01*
X154007670Y-93928030D01*
X153947061Y-93907827D01*
G04 #@! TO.C,C12*
X156801734Y-85921281D02*
X156761328Y-85921281D01*
X156680516Y-85880875D01*
X156640110Y-85840469D01*
X156599704Y-85759657D01*
X156599704Y-85678845D01*
X156619907Y-85618235D01*
X156680516Y-85517220D01*
X156741125Y-85456611D01*
X156842141Y-85396002D01*
X156902750Y-85375799D01*
X156983562Y-85375799D01*
X157064374Y-85416205D01*
X157104780Y-85456611D01*
X157145186Y-85537423D01*
X157145186Y-85577829D01*
X157165389Y-86365748D02*
X156922953Y-86123312D01*
X157044171Y-86244530D02*
X157468435Y-85820266D01*
X157367420Y-85840469D01*
X157286608Y-85840469D01*
X157225999Y-85820266D01*
X157710872Y-86143515D02*
X157751278Y-86143515D01*
X157811887Y-86163718D01*
X157912902Y-86264733D01*
X157933105Y-86325342D01*
X157933105Y-86365748D01*
X157912902Y-86426357D01*
X157872496Y-86466764D01*
X157791684Y-86507170D01*
X157306811Y-86507170D01*
X157569450Y-86769809D01*
G04 #@! TO.C,C13*
X159443785Y-88542785D02*
X159415214Y-88571357D01*
X159329500Y-88599928D01*
X159272357Y-88599928D01*
X159186642Y-88571357D01*
X159129500Y-88514214D01*
X159100928Y-88457071D01*
X159072357Y-88342785D01*
X159072357Y-88257071D01*
X159100928Y-88142785D01*
X159129500Y-88085642D01*
X159186642Y-88028500D01*
X159272357Y-87999928D01*
X159329500Y-87999928D01*
X159415214Y-88028500D01*
X159443785Y-88057071D01*
X160015214Y-88599928D02*
X159672357Y-88599928D01*
X159843785Y-88599928D02*
X159843785Y-87999928D01*
X159786642Y-88085642D01*
X159729500Y-88142785D01*
X159672357Y-88171357D01*
X160215214Y-87999928D02*
X160586642Y-87999928D01*
X160386642Y-88228500D01*
X160472357Y-88228500D01*
X160529500Y-88257071D01*
X160558071Y-88285642D01*
X160586642Y-88342785D01*
X160586642Y-88485642D01*
X160558071Y-88542785D01*
X160529500Y-88571357D01*
X160472357Y-88599928D01*
X160300928Y-88599928D01*
X160243785Y-88571357D01*
X160215214Y-88542785D01*
G04 #@! TO.C,C14*
X157104781Y-84180764D02*
X157104781Y-84221170D01*
X157064375Y-84301982D01*
X157023969Y-84342388D01*
X156943157Y-84382794D01*
X156862345Y-84382794D01*
X156801735Y-84362591D01*
X156700720Y-84301982D01*
X156640111Y-84241373D01*
X156579502Y-84140357D01*
X156559299Y-84079748D01*
X156559299Y-83998936D01*
X156599705Y-83918124D01*
X156640111Y-83877718D01*
X156720923Y-83837312D01*
X156761329Y-83837312D01*
X157549248Y-83817109D02*
X157306812Y-84059545D01*
X157428030Y-83938327D02*
X157003766Y-83514063D01*
X157023969Y-83615078D01*
X157023969Y-83695890D01*
X157003766Y-83756500D01*
X157630061Y-83170611D02*
X157912903Y-83453454D01*
X157367421Y-83110002D02*
X157569451Y-83514063D01*
X157832091Y-83251423D01*
G04 #@! TO.C,C15*
X154310781Y-83291764D02*
X154310781Y-83332170D01*
X154270375Y-83412982D01*
X154229969Y-83453388D01*
X154149157Y-83493794D01*
X154068345Y-83493794D01*
X154007735Y-83473591D01*
X153906720Y-83412982D01*
X153846111Y-83352373D01*
X153785502Y-83251357D01*
X153765299Y-83190748D01*
X153765299Y-83109936D01*
X153805705Y-83029124D01*
X153846111Y-82988718D01*
X153926923Y-82948312D01*
X153967329Y-82948312D01*
X154755248Y-82928109D02*
X154512812Y-83170545D01*
X154634030Y-83049327D02*
X154209766Y-82625063D01*
X154229969Y-82726078D01*
X154229969Y-82806890D01*
X154209766Y-82867500D01*
X154714842Y-82119987D02*
X154512812Y-82322017D01*
X154694639Y-82544251D01*
X154694639Y-82503845D01*
X154714842Y-82443235D01*
X154815857Y-82342220D01*
X154876467Y-82322017D01*
X154916873Y-82322017D01*
X154977482Y-82342220D01*
X155078497Y-82443235D01*
X155098700Y-82503845D01*
X155098700Y-82544251D01*
X155078497Y-82604860D01*
X154977482Y-82705875D01*
X154916873Y-82726078D01*
X154876467Y-82726078D01*
G04 #@! TO.C,C16*
X157041281Y-94467764D02*
X157041281Y-94508170D01*
X157000875Y-94588982D01*
X156960469Y-94629388D01*
X156879657Y-94669794D01*
X156798845Y-94669794D01*
X156738235Y-94649591D01*
X156637220Y-94588982D01*
X156576611Y-94528373D01*
X156516002Y-94427357D01*
X156495799Y-94366748D01*
X156495799Y-94285936D01*
X156536205Y-94205124D01*
X156576611Y-94164718D01*
X156657423Y-94124312D01*
X156697829Y-94124312D01*
X157485748Y-94104109D02*
X157243312Y-94346545D01*
X157364530Y-94225327D02*
X156940266Y-93801063D01*
X156960469Y-93902078D01*
X156960469Y-93982890D01*
X156940266Y-94043500D01*
X157425139Y-93316190D02*
X157344327Y-93397002D01*
X157324124Y-93457611D01*
X157324124Y-93498017D01*
X157344327Y-93599032D01*
X157404936Y-93700048D01*
X157566561Y-93861672D01*
X157627170Y-93881875D01*
X157667576Y-93881875D01*
X157728185Y-93861672D01*
X157808997Y-93780860D01*
X157829200Y-93720251D01*
X157829200Y-93679845D01*
X157808997Y-93619235D01*
X157707982Y-93518220D01*
X157647373Y-93498017D01*
X157606967Y-93498017D01*
X157546357Y-93518220D01*
X157465545Y-93599032D01*
X157445342Y-93659642D01*
X157445342Y-93700048D01*
X157465545Y-93760657D01*
G04 #@! TO.C,C17*
X157739781Y-95102764D02*
X157739781Y-95143170D01*
X157699375Y-95223982D01*
X157658969Y-95264388D01*
X157578157Y-95304794D01*
X157497345Y-95304794D01*
X157436735Y-95284591D01*
X157335720Y-95223982D01*
X157275111Y-95163373D01*
X157214502Y-95062357D01*
X157194299Y-95001748D01*
X157194299Y-94920936D01*
X157234705Y-94840124D01*
X157275111Y-94799718D01*
X157355923Y-94759312D01*
X157396329Y-94759312D01*
X158184248Y-94739109D02*
X157941812Y-94981545D01*
X158063030Y-94860327D02*
X157638766Y-94436063D01*
X157658969Y-94537078D01*
X157658969Y-94617890D01*
X157638766Y-94678500D01*
X157901406Y-94173423D02*
X158184248Y-93890581D01*
X158426685Y-94496672D01*
G04 #@! TO.C,C18*
X143923127Y-102671986D02*
X143894556Y-102700558D01*
X143808842Y-102729129D01*
X143751699Y-102729129D01*
X143665984Y-102700558D01*
X143608842Y-102643415D01*
X143580270Y-102586272D01*
X143551699Y-102471986D01*
X143551699Y-102386272D01*
X143580270Y-102271986D01*
X143608842Y-102214843D01*
X143665984Y-102157701D01*
X143751699Y-102129129D01*
X143808842Y-102129129D01*
X143894556Y-102157701D01*
X143923127Y-102186272D01*
X144494556Y-102729129D02*
X144151699Y-102729129D01*
X144323127Y-102729129D02*
X144323127Y-102129129D01*
X144265984Y-102214843D01*
X144208842Y-102271986D01*
X144151699Y-102300558D01*
X144837413Y-102386272D02*
X144780270Y-102357701D01*
X144751699Y-102329129D01*
X144723127Y-102271986D01*
X144723127Y-102243415D01*
X144751699Y-102186272D01*
X144780270Y-102157701D01*
X144837413Y-102129129D01*
X144951699Y-102129129D01*
X145008842Y-102157701D01*
X145037413Y-102186272D01*
X145065984Y-102243415D01*
X145065984Y-102271986D01*
X145037413Y-102329129D01*
X145008842Y-102357701D01*
X144951699Y-102386272D01*
X144837413Y-102386272D01*
X144780270Y-102414843D01*
X144751699Y-102443415D01*
X144723127Y-102500558D01*
X144723127Y-102614843D01*
X144751699Y-102671986D01*
X144780270Y-102700558D01*
X144837413Y-102729129D01*
X144951699Y-102729129D01*
X145008842Y-102700558D01*
X145037413Y-102671986D01*
X145065984Y-102614843D01*
X145065984Y-102500558D01*
X145037413Y-102443415D01*
X145008842Y-102414843D01*
X144951699Y-102386272D01*
G04 #@! TO.C,C19*
X143923127Y-101489984D02*
X143894556Y-101518556D01*
X143808842Y-101547127D01*
X143751699Y-101547127D01*
X143665984Y-101518556D01*
X143608842Y-101461413D01*
X143580270Y-101404270D01*
X143551699Y-101289984D01*
X143551699Y-101204270D01*
X143580270Y-101089984D01*
X143608842Y-101032841D01*
X143665984Y-100975699D01*
X143751699Y-100947127D01*
X143808842Y-100947127D01*
X143894556Y-100975699D01*
X143923127Y-101004270D01*
X144494556Y-101547127D02*
X144151699Y-101547127D01*
X144323127Y-101547127D02*
X144323127Y-100947127D01*
X144265984Y-101032841D01*
X144208842Y-101089984D01*
X144151699Y-101118556D01*
X144780270Y-101547127D02*
X144894556Y-101547127D01*
X144951699Y-101518556D01*
X144980270Y-101489984D01*
X145037413Y-101404270D01*
X145065984Y-101289984D01*
X145065984Y-101061413D01*
X145037413Y-101004270D01*
X145008842Y-100975699D01*
X144951699Y-100947127D01*
X144837413Y-100947127D01*
X144780270Y-100975699D01*
X144751699Y-101004270D01*
X144723127Y-101061413D01*
X144723127Y-101204270D01*
X144751699Y-101261413D01*
X144780270Y-101289984D01*
X144837413Y-101318556D01*
X144951699Y-101318556D01*
X145008842Y-101289984D01*
X145037413Y-101261413D01*
X145065984Y-101204270D01*
G04 #@! TO.C,C20*
X157295281Y-92943763D02*
X157295281Y-92984169D01*
X157254875Y-93064981D01*
X157214469Y-93105387D01*
X157133657Y-93145793D01*
X157052845Y-93145793D01*
X156992235Y-93125590D01*
X156891220Y-93064981D01*
X156830611Y-93004372D01*
X156770002Y-92903356D01*
X156749799Y-92842747D01*
X156749799Y-92761935D01*
X156790205Y-92681123D01*
X156830611Y-92640717D01*
X156911423Y-92600311D01*
X156951829Y-92600311D01*
X157113454Y-92438686D02*
X157113454Y-92398280D01*
X157133657Y-92337671D01*
X157234672Y-92236656D01*
X157295281Y-92216453D01*
X157335687Y-92216453D01*
X157396296Y-92236656D01*
X157436703Y-92277062D01*
X157477109Y-92357874D01*
X157477109Y-92842747D01*
X157739748Y-92580108D01*
X157578124Y-91893204D02*
X157618530Y-91852798D01*
X157679139Y-91832595D01*
X157719545Y-91832595D01*
X157780154Y-91852798D01*
X157881170Y-91913407D01*
X157982185Y-92014422D01*
X158042794Y-92115437D01*
X158062997Y-92176047D01*
X158062997Y-92216453D01*
X158042794Y-92277062D01*
X158002388Y-92317468D01*
X157941779Y-92337671D01*
X157901373Y-92337671D01*
X157840764Y-92317468D01*
X157739748Y-92256859D01*
X157638733Y-92155844D01*
X157578124Y-92054828D01*
X157557921Y-91994219D01*
X157557921Y-91953813D01*
X157578124Y-91893204D01*
G04 #@! TO.C,C21*
X159568581Y-102811664D02*
X159568581Y-102852070D01*
X159528175Y-102932882D01*
X159487769Y-102973288D01*
X159406957Y-103013694D01*
X159326145Y-103013694D01*
X159265535Y-102993491D01*
X159164520Y-102932882D01*
X159103911Y-102872273D01*
X159043302Y-102771257D01*
X159023099Y-102710648D01*
X159023099Y-102629836D01*
X159063505Y-102549024D01*
X159103911Y-102508618D01*
X159184723Y-102468212D01*
X159225129Y-102468212D01*
X159386754Y-102306587D02*
X159386754Y-102266181D01*
X159406957Y-102205572D01*
X159507972Y-102104557D01*
X159568581Y-102084354D01*
X159608987Y-102084354D01*
X159669596Y-102104557D01*
X159710003Y-102144963D01*
X159750409Y-102225775D01*
X159750409Y-102710648D01*
X160013048Y-102448009D01*
X160417109Y-102043948D02*
X160174673Y-102286384D01*
X160295891Y-102165166D02*
X159871627Y-101740902D01*
X159891830Y-101841917D01*
X159891830Y-101922729D01*
X159871627Y-101983338D01*
G04 #@! TO.C,C22*
X160470281Y-93705764D02*
X160470281Y-93746170D01*
X160429875Y-93826982D01*
X160389469Y-93867388D01*
X160308657Y-93907794D01*
X160227845Y-93907794D01*
X160167235Y-93887591D01*
X160066220Y-93826982D01*
X160005611Y-93766373D01*
X159945002Y-93665357D01*
X159924799Y-93604748D01*
X159924799Y-93523936D01*
X159965205Y-93443124D01*
X160005611Y-93402718D01*
X160086423Y-93362312D01*
X160126829Y-93362312D01*
X160288454Y-93200687D02*
X160288454Y-93160281D01*
X160308657Y-93099672D01*
X160409672Y-92998657D01*
X160470281Y-92978454D01*
X160510687Y-92978454D01*
X160571296Y-92998657D01*
X160611703Y-93039063D01*
X160652109Y-93119875D01*
X160652109Y-93604748D01*
X160914748Y-93342109D01*
X160692515Y-92796626D02*
X160692515Y-92756220D01*
X160712718Y-92695611D01*
X160813733Y-92594596D01*
X160874342Y-92574393D01*
X160914748Y-92574393D01*
X160975357Y-92594596D01*
X161015764Y-92635002D01*
X161056170Y-92715814D01*
X161056170Y-93200687D01*
X161318809Y-92938048D01*
G04 #@! TO.C,C23*
X150683885Y-103230314D02*
X150712457Y-103258885D01*
X150741028Y-103344600D01*
X150741028Y-103401742D01*
X150712457Y-103487457D01*
X150655314Y-103544600D01*
X150598171Y-103573171D01*
X150483885Y-103601742D01*
X150398171Y-103601742D01*
X150283885Y-103573171D01*
X150226742Y-103544600D01*
X150169600Y-103487457D01*
X150141028Y-103401742D01*
X150141028Y-103344600D01*
X150169600Y-103258885D01*
X150198171Y-103230314D01*
X150198171Y-103001742D02*
X150169600Y-102973171D01*
X150141028Y-102916028D01*
X150141028Y-102773171D01*
X150169600Y-102716028D01*
X150198171Y-102687457D01*
X150255314Y-102658885D01*
X150312457Y-102658885D01*
X150398171Y-102687457D01*
X150741028Y-103030314D01*
X150741028Y-102658885D01*
X150141028Y-102458885D02*
X150141028Y-102087457D01*
X150369600Y-102287457D01*
X150369600Y-102201742D01*
X150398171Y-102144600D01*
X150426742Y-102116028D01*
X150483885Y-102087457D01*
X150626742Y-102087457D01*
X150683885Y-102116028D01*
X150712457Y-102144600D01*
X150741028Y-102201742D01*
X150741028Y-102373171D01*
X150712457Y-102430314D01*
X150683885Y-102458885D01*
G04 #@! TO.C,C24*
X133396085Y-92848085D02*
X133367514Y-92876657D01*
X133281800Y-92905228D01*
X133224657Y-92905228D01*
X133138942Y-92876657D01*
X133081800Y-92819514D01*
X133053228Y-92762371D01*
X133024657Y-92648085D01*
X133024657Y-92562371D01*
X133053228Y-92448085D01*
X133081800Y-92390942D01*
X133138942Y-92333800D01*
X133224657Y-92305228D01*
X133281800Y-92305228D01*
X133367514Y-92333800D01*
X133396085Y-92362371D01*
X133624657Y-92362371D02*
X133653228Y-92333800D01*
X133710371Y-92305228D01*
X133853228Y-92305228D01*
X133910371Y-92333800D01*
X133938942Y-92362371D01*
X133967514Y-92419514D01*
X133967514Y-92476657D01*
X133938942Y-92562371D01*
X133596085Y-92905228D01*
X133967514Y-92905228D01*
X134481800Y-92505228D02*
X134481800Y-92905228D01*
X134338942Y-92276657D02*
X134196085Y-92705228D01*
X134567514Y-92705228D01*
G04 #@! TO.C,C25*
X141828885Y-87920485D02*
X141800314Y-87949057D01*
X141714600Y-87977628D01*
X141657457Y-87977628D01*
X141571742Y-87949057D01*
X141514600Y-87891914D01*
X141486028Y-87834771D01*
X141457457Y-87720485D01*
X141457457Y-87634771D01*
X141486028Y-87520485D01*
X141514600Y-87463342D01*
X141571742Y-87406200D01*
X141657457Y-87377628D01*
X141714600Y-87377628D01*
X141800314Y-87406200D01*
X141828885Y-87434771D01*
X142057457Y-87434771D02*
X142086028Y-87406200D01*
X142143171Y-87377628D01*
X142286028Y-87377628D01*
X142343171Y-87406200D01*
X142371742Y-87434771D01*
X142400314Y-87491914D01*
X142400314Y-87549057D01*
X142371742Y-87634771D01*
X142028885Y-87977628D01*
X142400314Y-87977628D01*
X142943171Y-87377628D02*
X142657457Y-87377628D01*
X142628885Y-87663342D01*
X142657457Y-87634771D01*
X142714600Y-87606200D01*
X142857457Y-87606200D01*
X142914600Y-87634771D01*
X142943171Y-87663342D01*
X142971742Y-87720485D01*
X142971742Y-87863342D01*
X142943171Y-87920485D01*
X142914600Y-87949057D01*
X142857457Y-87977628D01*
X142714600Y-87977628D01*
X142657457Y-87949057D01*
X142628885Y-87920485D01*
G04 #@! TO.C,C26*
X156649335Y-103459981D02*
X156608929Y-103459981D01*
X156528117Y-103419575D01*
X156487711Y-103379169D01*
X156447305Y-103298357D01*
X156447305Y-103217545D01*
X156467508Y-103156935D01*
X156528117Y-103055920D01*
X156588726Y-102995311D01*
X156689742Y-102934702D01*
X156750351Y-102914499D01*
X156831163Y-102914499D01*
X156911975Y-102954905D01*
X156952381Y-102995311D01*
X156992787Y-103076123D01*
X156992787Y-103116529D01*
X157154412Y-103278154D02*
X157194818Y-103278154D01*
X157255427Y-103298357D01*
X157356442Y-103399372D01*
X157376645Y-103459981D01*
X157376645Y-103500387D01*
X157356442Y-103560996D01*
X157316036Y-103601403D01*
X157235224Y-103641809D01*
X156750351Y-103641809D01*
X157012990Y-103904448D01*
X157800909Y-103843839D02*
X157720097Y-103763027D01*
X157659488Y-103742824D01*
X157619082Y-103742824D01*
X157518067Y-103763027D01*
X157417051Y-103823636D01*
X157255427Y-103985261D01*
X157235224Y-104045870D01*
X157235224Y-104086276D01*
X157255427Y-104146885D01*
X157336239Y-104227697D01*
X157396848Y-104247900D01*
X157437254Y-104247900D01*
X157497864Y-104227697D01*
X157598879Y-104126682D01*
X157619082Y-104066073D01*
X157619082Y-104025667D01*
X157598879Y-103965057D01*
X157518067Y-103884245D01*
X157457457Y-103864042D01*
X157417051Y-103864042D01*
X157356442Y-103884245D01*
G04 #@! TO.C,L2*
X152775218Y-91131139D02*
X152573187Y-91333170D01*
X152148923Y-90908906D01*
X152512578Y-90626063D02*
X152512578Y-90585657D01*
X152532781Y-90525048D01*
X152633796Y-90424032D01*
X152694406Y-90403829D01*
X152734812Y-90403829D01*
X152795421Y-90424032D01*
X152835827Y-90464438D01*
X152876233Y-90545251D01*
X152876233Y-91030124D01*
X153138873Y-90767484D01*
G04 #@! TO.C,L3*
X158269000Y-89996928D02*
X157983285Y-89996928D01*
X157983285Y-89396928D01*
X158411857Y-89396928D02*
X158783285Y-89396928D01*
X158583285Y-89625500D01*
X158669000Y-89625500D01*
X158726142Y-89654071D01*
X158754714Y-89682642D01*
X158783285Y-89739785D01*
X158783285Y-89882642D01*
X158754714Y-89939785D01*
X158726142Y-89968357D01*
X158669000Y-89996928D01*
X158497571Y-89996928D01*
X158440428Y-89968357D01*
X158411857Y-89939785D01*
G04 #@! TO.C,L4*
X154268500Y-86758428D02*
X153982785Y-86758428D01*
X153982785Y-86158428D01*
X154725642Y-86358428D02*
X154725642Y-86758428D01*
X154582785Y-86129857D02*
X154439928Y-86558428D01*
X154811357Y-86558428D01*
G04 #@! TO.C,L5*
X157725360Y-91307218D02*
X157523329Y-91105187D01*
X157947593Y-90680923D01*
X158493076Y-91226406D02*
X158291045Y-91024375D01*
X158068812Y-91206203D01*
X158109218Y-91206203D01*
X158169827Y-91226406D01*
X158270842Y-91327421D01*
X158291045Y-91388030D01*
X158291045Y-91428436D01*
X158270842Y-91489045D01*
X158169827Y-91590061D01*
X158109218Y-91610264D01*
X158068812Y-91610264D01*
X158008203Y-91590061D01*
X157907187Y-91489045D01*
X157886984Y-91428436D01*
X157886984Y-91388030D01*
G04 #@! TO.C,L6*
X141378000Y-85488428D02*
X141092285Y-85488428D01*
X141092285Y-84888428D01*
X141835142Y-84888428D02*
X141720857Y-84888428D01*
X141663714Y-84917000D01*
X141635142Y-84945571D01*
X141578000Y-85031285D01*
X141549428Y-85145571D01*
X141549428Y-85374142D01*
X141578000Y-85431285D01*
X141606571Y-85459857D01*
X141663714Y-85488428D01*
X141778000Y-85488428D01*
X141835142Y-85459857D01*
X141863714Y-85431285D01*
X141892285Y-85374142D01*
X141892285Y-85231285D01*
X141863714Y-85174142D01*
X141835142Y-85145571D01*
X141778000Y-85117000D01*
X141663714Y-85117000D01*
X141606571Y-85145571D01*
X141578000Y-85174142D01*
X141549428Y-85231285D01*
G04 #@! TO.C,R1*
X136082100Y-100118828D02*
X135882100Y-99833114D01*
X135739242Y-100118828D02*
X135739242Y-99518828D01*
X135967814Y-99518828D01*
X136024957Y-99547400D01*
X136053528Y-99575971D01*
X136082100Y-99633114D01*
X136082100Y-99718828D01*
X136053528Y-99775971D01*
X136024957Y-99804542D01*
X135967814Y-99833114D01*
X135739242Y-99833114D01*
X136653528Y-100118828D02*
X136310671Y-100118828D01*
X136482100Y-100118828D02*
X136482100Y-99518828D01*
X136424957Y-99604542D01*
X136367814Y-99661685D01*
X136310671Y-99690257D01*
G04 #@! TO.C,R2*
X143336260Y-96488818D02*
X143396869Y-96145366D01*
X143093823Y-96246381D02*
X143518087Y-95822117D01*
X143679712Y-95983742D01*
X143699915Y-96044351D01*
X143699915Y-96084757D01*
X143679712Y-96145366D01*
X143619103Y-96205975D01*
X143558493Y-96226178D01*
X143518087Y-96226178D01*
X143457478Y-96205975D01*
X143295854Y-96044351D01*
X143881742Y-96266584D02*
X143922148Y-96266584D01*
X143982757Y-96286787D01*
X144083773Y-96387803D01*
X144103976Y-96448412D01*
X144103976Y-96488818D01*
X144083773Y-96549427D01*
X144043367Y-96589833D01*
X143962554Y-96630239D01*
X143477681Y-96630239D01*
X143740321Y-96892879D01*
G04 #@! TO.C,R3*
X145939760Y-94329818D02*
X146000369Y-93986366D01*
X145697323Y-94087381D02*
X146121587Y-93663117D01*
X146283212Y-93824742D01*
X146303415Y-93885351D01*
X146303415Y-93925757D01*
X146283212Y-93986366D01*
X146222603Y-94046975D01*
X146161993Y-94067178D01*
X146121587Y-94067178D01*
X146060978Y-94046975D01*
X145899354Y-93885351D01*
X146505445Y-94046975D02*
X146768085Y-94309615D01*
X146465039Y-94329818D01*
X146525648Y-94390427D01*
X146545851Y-94451036D01*
X146545851Y-94491442D01*
X146525648Y-94552051D01*
X146424633Y-94653067D01*
X146364024Y-94673270D01*
X146323618Y-94673270D01*
X146263009Y-94653067D01*
X146141790Y-94531848D01*
X146121587Y-94471239D01*
X146121587Y-94430833D01*
G04 #@! TO.C,R4*
X143729960Y-98647818D02*
X143790569Y-98304366D01*
X143487523Y-98405381D02*
X143911787Y-97981117D01*
X144073412Y-98142742D01*
X144093615Y-98203351D01*
X144093615Y-98243757D01*
X144073412Y-98304366D01*
X144012803Y-98364975D01*
X143952193Y-98385178D01*
X143911787Y-98385178D01*
X143851178Y-98364975D01*
X143689554Y-98203351D01*
X144376457Y-98728630D02*
X144093615Y-99011473D01*
X144437067Y-98465990D02*
X144033006Y-98668021D01*
X144295645Y-98930661D01*
G04 #@! TO.C,R5*
X157583200Y-110126428D02*
X157383200Y-109840714D01*
X157240342Y-110126428D02*
X157240342Y-109526428D01*
X157468914Y-109526428D01*
X157526057Y-109555000D01*
X157554628Y-109583571D01*
X157583200Y-109640714D01*
X157583200Y-109726428D01*
X157554628Y-109783571D01*
X157526057Y-109812142D01*
X157468914Y-109840714D01*
X157240342Y-109840714D01*
X158126057Y-109526428D02*
X157840342Y-109526428D01*
X157811771Y-109812142D01*
X157840342Y-109783571D01*
X157897485Y-109755000D01*
X158040342Y-109755000D01*
X158097485Y-109783571D01*
X158126057Y-109812142D01*
X158154628Y-109869285D01*
X158154628Y-110012142D01*
X158126057Y-110069285D01*
X158097485Y-110097857D01*
X158040342Y-110126428D01*
X157897485Y-110126428D01*
X157840342Y-110097857D01*
X157811771Y-110069285D01*
G04 #@! TO.C,R6*
X155271800Y-112641028D02*
X155071800Y-112355314D01*
X154928942Y-112641028D02*
X154928942Y-112041028D01*
X155157514Y-112041028D01*
X155214657Y-112069600D01*
X155243228Y-112098171D01*
X155271800Y-112155314D01*
X155271800Y-112241028D01*
X155243228Y-112298171D01*
X155214657Y-112326742D01*
X155157514Y-112355314D01*
X154928942Y-112355314D01*
X155786085Y-112041028D02*
X155671800Y-112041028D01*
X155614657Y-112069600D01*
X155586085Y-112098171D01*
X155528942Y-112183885D01*
X155500371Y-112298171D01*
X155500371Y-112526742D01*
X155528942Y-112583885D01*
X155557514Y-112612457D01*
X155614657Y-112641028D01*
X155728942Y-112641028D01*
X155786085Y-112612457D01*
X155814657Y-112583885D01*
X155843228Y-112526742D01*
X155843228Y-112383885D01*
X155814657Y-112326742D01*
X155786085Y-112298171D01*
X155728942Y-112269600D01*
X155614657Y-112269600D01*
X155557514Y-112298171D01*
X155528942Y-112326742D01*
X155500371Y-112383885D01*
G04 #@! TO.C,R7*
X154578618Y-99195639D02*
X154235166Y-99135030D01*
X154336181Y-99438076D02*
X153911917Y-99013812D01*
X154073542Y-98852187D01*
X154134151Y-98831984D01*
X154174557Y-98831984D01*
X154235166Y-98852187D01*
X154295775Y-98912796D01*
X154315978Y-98973406D01*
X154315978Y-99013812D01*
X154295775Y-99074421D01*
X154134151Y-99236045D01*
X154295775Y-98629954D02*
X154578618Y-98347111D01*
X154821054Y-98953203D01*
G04 #@! TO.C,R8*
X153689618Y-100084639D02*
X153346166Y-100024030D01*
X153447181Y-100327076D02*
X153022917Y-99902812D01*
X153184542Y-99741187D01*
X153245151Y-99720984D01*
X153285557Y-99720984D01*
X153346166Y-99741187D01*
X153406775Y-99801796D01*
X153426978Y-99862406D01*
X153426978Y-99902812D01*
X153406775Y-99963421D01*
X153245151Y-100125045D01*
X153689618Y-99599766D02*
X153629009Y-99619969D01*
X153588603Y-99619969D01*
X153527993Y-99599766D01*
X153507790Y-99579563D01*
X153487587Y-99518954D01*
X153487587Y-99478548D01*
X153507790Y-99417938D01*
X153588603Y-99337126D01*
X153649212Y-99316923D01*
X153689618Y-99316923D01*
X153750227Y-99337126D01*
X153770430Y-99357329D01*
X153790633Y-99417938D01*
X153790633Y-99458345D01*
X153770430Y-99518954D01*
X153689618Y-99599766D01*
X153669415Y-99660375D01*
X153669415Y-99700781D01*
X153689618Y-99761390D01*
X153770430Y-99842203D01*
X153831039Y-99862406D01*
X153871445Y-99862406D01*
X153932054Y-99842203D01*
X154012867Y-99761390D01*
X154033070Y-99700781D01*
X154033070Y-99660375D01*
X154012867Y-99599766D01*
X153932054Y-99518954D01*
X153871445Y-99498751D01*
X153831039Y-99498751D01*
X153770430Y-99518954D01*
G04 #@! TO.C,R9*
X152826018Y-100897439D02*
X152482566Y-100836830D01*
X152583581Y-101139876D02*
X152159317Y-100715612D01*
X152320942Y-100553987D01*
X152381551Y-100533784D01*
X152421957Y-100533784D01*
X152482566Y-100553987D01*
X152543175Y-100614596D01*
X152563378Y-100675206D01*
X152563378Y-100715612D01*
X152543175Y-100776221D01*
X152381551Y-100937845D01*
X153028048Y-100695409D02*
X153108861Y-100614596D01*
X153129064Y-100553987D01*
X153129064Y-100513581D01*
X153108861Y-100412566D01*
X153048251Y-100311551D01*
X152886627Y-100149926D01*
X152826018Y-100129723D01*
X152785612Y-100129723D01*
X152725003Y-100149926D01*
X152644190Y-100230738D01*
X152623987Y-100291348D01*
X152623987Y-100331754D01*
X152644190Y-100392363D01*
X152745206Y-100493378D01*
X152805815Y-100513581D01*
X152846221Y-100513581D01*
X152906830Y-100493378D01*
X152987642Y-100412566D01*
X153007845Y-100351957D01*
X153007845Y-100311551D01*
X152987642Y-100250942D01*
G04 #@! TO.C,R10*
X149902828Y-103128714D02*
X149617114Y-103328714D01*
X149902828Y-103471571D02*
X149302828Y-103471571D01*
X149302828Y-103243000D01*
X149331400Y-103185857D01*
X149359971Y-103157285D01*
X149417114Y-103128714D01*
X149502828Y-103128714D01*
X149559971Y-103157285D01*
X149588542Y-103185857D01*
X149617114Y-103243000D01*
X149617114Y-103471571D01*
X149902828Y-102557285D02*
X149902828Y-102900142D01*
X149902828Y-102728714D02*
X149302828Y-102728714D01*
X149388542Y-102785857D01*
X149445685Y-102843000D01*
X149474257Y-102900142D01*
X149302828Y-102185857D02*
X149302828Y-102128714D01*
X149331400Y-102071571D01*
X149359971Y-102043000D01*
X149417114Y-102014428D01*
X149531400Y-101985857D01*
X149674257Y-101985857D01*
X149788542Y-102014428D01*
X149845685Y-102043000D01*
X149874257Y-102071571D01*
X149902828Y-102128714D01*
X149902828Y-102185857D01*
X149874257Y-102243000D01*
X149845685Y-102271571D01*
X149788542Y-102300142D01*
X149674257Y-102328714D01*
X149531400Y-102328714D01*
X149417114Y-102300142D01*
X149359971Y-102271571D01*
X149331400Y-102243000D01*
X149302828Y-102185857D01*
G04 #@! TO.C,R11*
X157269329Y-102535187D02*
X157329938Y-102191735D01*
X157026893Y-102292751D02*
X157451157Y-101868487D01*
X157612781Y-102030111D01*
X157632984Y-102090720D01*
X157632984Y-102131126D01*
X157612781Y-102191735D01*
X157552172Y-102252345D01*
X157491563Y-102272548D01*
X157451157Y-102272548D01*
X157390548Y-102252345D01*
X157228923Y-102090720D01*
X157673390Y-102939248D02*
X157430954Y-102696812D01*
X157552172Y-102818030D02*
X157976436Y-102393766D01*
X157875421Y-102413969D01*
X157794609Y-102413969D01*
X157734000Y-102393766D01*
X158077451Y-103343309D02*
X157835015Y-103100873D01*
X157956233Y-103222091D02*
X158380497Y-102797827D01*
X158279482Y-102818030D01*
X158198670Y-102818030D01*
X158138061Y-102797827D01*
G04 #@! TO.C,R12*
X142079628Y-89565114D02*
X141793914Y-89765114D01*
X142079628Y-89907971D02*
X141479628Y-89907971D01*
X141479628Y-89679400D01*
X141508200Y-89622257D01*
X141536771Y-89593685D01*
X141593914Y-89565114D01*
X141679628Y-89565114D01*
X141736771Y-89593685D01*
X141765342Y-89622257D01*
X141793914Y-89679400D01*
X141793914Y-89907971D01*
X142079628Y-88993685D02*
X142079628Y-89336542D01*
X142079628Y-89165114D02*
X141479628Y-89165114D01*
X141565342Y-89222257D01*
X141622485Y-89279400D01*
X141651057Y-89336542D01*
X141536771Y-88765114D02*
X141508200Y-88736542D01*
X141479628Y-88679400D01*
X141479628Y-88536542D01*
X141508200Y-88479400D01*
X141536771Y-88450828D01*
X141593914Y-88422257D01*
X141651057Y-88422257D01*
X141736771Y-88450828D01*
X142079628Y-88793685D01*
X142079628Y-88422257D01*
G04 #@! TO.C,R13*
X142892428Y-89565114D02*
X142606714Y-89765114D01*
X142892428Y-89907971D02*
X142292428Y-89907971D01*
X142292428Y-89679400D01*
X142321000Y-89622257D01*
X142349571Y-89593685D01*
X142406714Y-89565114D01*
X142492428Y-89565114D01*
X142549571Y-89593685D01*
X142578142Y-89622257D01*
X142606714Y-89679400D01*
X142606714Y-89907971D01*
X142892428Y-88993685D02*
X142892428Y-89336542D01*
X142892428Y-89165114D02*
X142292428Y-89165114D01*
X142378142Y-89222257D01*
X142435285Y-89279400D01*
X142463857Y-89336542D01*
X142292428Y-88793685D02*
X142292428Y-88422257D01*
X142521000Y-88622257D01*
X142521000Y-88536542D01*
X142549571Y-88479400D01*
X142578142Y-88450828D01*
X142635285Y-88422257D01*
X142778142Y-88422257D01*
X142835285Y-88450828D01*
X142863857Y-88479400D01*
X142892428Y-88536542D01*
X142892428Y-88707971D01*
X142863857Y-88765114D01*
X142835285Y-88793685D01*
G04 #@! TO.C,U1*
X149304416Y-92610413D02*
X149647867Y-92953865D01*
X149708477Y-92974068D01*
X149748883Y-92974068D01*
X149809492Y-92953865D01*
X149890304Y-92873053D01*
X149910507Y-92812444D01*
X149910507Y-92772038D01*
X149890304Y-92711428D01*
X149546852Y-92367977D01*
X150395380Y-92367977D02*
X150152944Y-92610413D01*
X150274162Y-92489195D02*
X149849898Y-92064931D01*
X149870101Y-92165946D01*
X149870101Y-92246758D01*
X149849898Y-92307367D01*
G04 #@! TO.C,U3*
X133718357Y-88825428D02*
X133718357Y-89311142D01*
X133746928Y-89368285D01*
X133775500Y-89396857D01*
X133832642Y-89425428D01*
X133946928Y-89425428D01*
X134004071Y-89396857D01*
X134032642Y-89368285D01*
X134061214Y-89311142D01*
X134061214Y-88825428D01*
X134289785Y-88825428D02*
X134661214Y-88825428D01*
X134461214Y-89054000D01*
X134546928Y-89054000D01*
X134604071Y-89082571D01*
X134632642Y-89111142D01*
X134661214Y-89168285D01*
X134661214Y-89311142D01*
X134632642Y-89368285D01*
X134604071Y-89396857D01*
X134546928Y-89425428D01*
X134375500Y-89425428D01*
X134318357Y-89396857D01*
X134289785Y-89368285D01*
G04 #@! TO.C,Y1*
X148187367Y-87631428D02*
X148389398Y-87833459D01*
X147823713Y-87550616D02*
X148187367Y-87631428D01*
X148106555Y-87267774D01*
X148894474Y-87328383D02*
X148652038Y-87570819D01*
X148773256Y-87449601D02*
X148348992Y-87025337D01*
X148369195Y-87126352D01*
X148369195Y-87207164D01*
X148348992Y-87267774D01*
G04 #@! TO.C,Y2*
X162855867Y-99378928D02*
X163057898Y-99580959D01*
X162492213Y-99298116D02*
X162855867Y-99378928D01*
X162775055Y-99015274D01*
X162936680Y-98934461D02*
X162936680Y-98894055D01*
X162956883Y-98833446D01*
X163057898Y-98732431D01*
X163118507Y-98712228D01*
X163158913Y-98712228D01*
X163219522Y-98732431D01*
X163259928Y-98772837D01*
X163300335Y-98853649D01*
X163300335Y-99338522D01*
X163562974Y-99075883D01*
G04 #@! TO.C,R14*
X160040685Y-104919428D02*
X159840685Y-104633714D01*
X159697828Y-104919428D02*
X159697828Y-104319428D01*
X159926400Y-104319428D01*
X159983542Y-104348000D01*
X160012114Y-104376571D01*
X160040685Y-104433714D01*
X160040685Y-104519428D01*
X160012114Y-104576571D01*
X159983542Y-104605142D01*
X159926400Y-104633714D01*
X159697828Y-104633714D01*
X160612114Y-104919428D02*
X160269257Y-104919428D01*
X160440685Y-104919428D02*
X160440685Y-104319428D01*
X160383542Y-104405142D01*
X160326400Y-104462285D01*
X160269257Y-104490857D01*
X161126400Y-104519428D02*
X161126400Y-104919428D01*
X160983542Y-104290857D02*
X160840685Y-104719428D01*
X161212114Y-104719428D01*
G04 #@! TO.C,R15*
X160091485Y-103700228D02*
X159891485Y-103414514D01*
X159748628Y-103700228D02*
X159748628Y-103100228D01*
X159977200Y-103100228D01*
X160034342Y-103128800D01*
X160062914Y-103157371D01*
X160091485Y-103214514D01*
X160091485Y-103300228D01*
X160062914Y-103357371D01*
X160034342Y-103385942D01*
X159977200Y-103414514D01*
X159748628Y-103414514D01*
X160662914Y-103700228D02*
X160320057Y-103700228D01*
X160491485Y-103700228D02*
X160491485Y-103100228D01*
X160434342Y-103185942D01*
X160377200Y-103243085D01*
X160320057Y-103271657D01*
X161205771Y-103100228D02*
X160920057Y-103100228D01*
X160891485Y-103385942D01*
X160920057Y-103357371D01*
X160977200Y-103328800D01*
X161120057Y-103328800D01*
X161177200Y-103357371D01*
X161205771Y-103385942D01*
X161234342Y-103443085D01*
X161234342Y-103585942D01*
X161205771Y-103643085D01*
X161177200Y-103671657D01*
X161120057Y-103700228D01*
X160977200Y-103700228D01*
X160920057Y-103671657D01*
X160891485Y-103643085D01*
G04 #@! TO.C,J1*
X153800200Y-106961028D02*
X153800200Y-107389600D01*
X153771628Y-107475314D01*
X153714485Y-107532457D01*
X153628771Y-107561028D01*
X153571628Y-107561028D01*
X154400200Y-107561028D02*
X154057342Y-107561028D01*
X154228771Y-107561028D02*
X154228771Y-106961028D01*
X154171628Y-107046742D01*
X154114485Y-107103885D01*
X154057342Y-107132457D01*
G04 #@! TO.C,J2*
X163223600Y-83171828D02*
X163223600Y-83600400D01*
X163195028Y-83686114D01*
X163137885Y-83743257D01*
X163052171Y-83771828D01*
X162995028Y-83771828D01*
X163480742Y-83228971D02*
X163509314Y-83200400D01*
X163566457Y-83171828D01*
X163709314Y-83171828D01*
X163766457Y-83200400D01*
X163795028Y-83228971D01*
X163823600Y-83286114D01*
X163823600Y-83343257D01*
X163795028Y-83428971D01*
X163452171Y-83771828D01*
X163823600Y-83771828D01*
G04 #@! TO.C,C27*
X158872285Y-84542285D02*
X158843714Y-84570857D01*
X158758000Y-84599428D01*
X158700857Y-84599428D01*
X158615142Y-84570857D01*
X158558000Y-84513714D01*
X158529428Y-84456571D01*
X158500857Y-84342285D01*
X158500857Y-84256571D01*
X158529428Y-84142285D01*
X158558000Y-84085142D01*
X158615142Y-84028000D01*
X158700857Y-83999428D01*
X158758000Y-83999428D01*
X158843714Y-84028000D01*
X158872285Y-84056571D01*
X159100857Y-84056571D02*
X159129428Y-84028000D01*
X159186571Y-83999428D01*
X159329428Y-83999428D01*
X159386571Y-84028000D01*
X159415142Y-84056571D01*
X159443714Y-84113714D01*
X159443714Y-84170857D01*
X159415142Y-84256571D01*
X159072285Y-84599428D01*
X159443714Y-84599428D01*
X159643714Y-83999428D02*
X160043714Y-83999428D01*
X159786571Y-84599428D01*
G04 #@! TO.C,R16*
X158999285Y-85742428D02*
X158799285Y-85456714D01*
X158656428Y-85742428D02*
X158656428Y-85142428D01*
X158885000Y-85142428D01*
X158942142Y-85171000D01*
X158970714Y-85199571D01*
X158999285Y-85256714D01*
X158999285Y-85342428D01*
X158970714Y-85399571D01*
X158942142Y-85428142D01*
X158885000Y-85456714D01*
X158656428Y-85456714D01*
X159570714Y-85742428D02*
X159227857Y-85742428D01*
X159399285Y-85742428D02*
X159399285Y-85142428D01*
X159342142Y-85228142D01*
X159285000Y-85285285D01*
X159227857Y-85313857D01*
X160085000Y-85142428D02*
X159970714Y-85142428D01*
X159913571Y-85171000D01*
X159885000Y-85199571D01*
X159827857Y-85285285D01*
X159799285Y-85399571D01*
X159799285Y-85628142D01*
X159827857Y-85685285D01*
X159856428Y-85713857D01*
X159913571Y-85742428D01*
X160027857Y-85742428D01*
X160085000Y-85713857D01*
X160113571Y-85685285D01*
X160142142Y-85628142D01*
X160142142Y-85485285D01*
X160113571Y-85428142D01*
X160085000Y-85399571D01*
X160027857Y-85371000D01*
X159913571Y-85371000D01*
X159856428Y-85399571D01*
X159827857Y-85428142D01*
X159799285Y-85485285D01*
G04 #@! TO.C,R17*
X147035885Y-112564828D02*
X146835885Y-112279114D01*
X146693028Y-112564828D02*
X146693028Y-111964828D01*
X146921600Y-111964828D01*
X146978742Y-111993400D01*
X147007314Y-112021971D01*
X147035885Y-112079114D01*
X147035885Y-112164828D01*
X147007314Y-112221971D01*
X146978742Y-112250542D01*
X146921600Y-112279114D01*
X146693028Y-112279114D01*
X147607314Y-112564828D02*
X147264457Y-112564828D01*
X147435885Y-112564828D02*
X147435885Y-111964828D01*
X147378742Y-112050542D01*
X147321600Y-112107685D01*
X147264457Y-112136257D01*
X147807314Y-111964828D02*
X148207314Y-111964828D01*
X147950171Y-112564828D01*
G04 #@! TO.C,U4*
X141571228Y-108657542D02*
X142056942Y-108657542D01*
X142114085Y-108628971D01*
X142142657Y-108600400D01*
X142171228Y-108543257D01*
X142171228Y-108428971D01*
X142142657Y-108371828D01*
X142114085Y-108343257D01*
X142056942Y-108314685D01*
X141571228Y-108314685D01*
X141771228Y-107771828D02*
X142171228Y-107771828D01*
X141542657Y-107914685D02*
X141971228Y-108057542D01*
X141971228Y-107686114D01*
G04 #@! TO.C,R18*
X141270085Y-112310828D02*
X141070085Y-112025114D01*
X140927228Y-112310828D02*
X140927228Y-111710828D01*
X141155800Y-111710828D01*
X141212942Y-111739400D01*
X141241514Y-111767971D01*
X141270085Y-111825114D01*
X141270085Y-111910828D01*
X141241514Y-111967971D01*
X141212942Y-111996542D01*
X141155800Y-112025114D01*
X140927228Y-112025114D01*
X141841514Y-112310828D02*
X141498657Y-112310828D01*
X141670085Y-112310828D02*
X141670085Y-111710828D01*
X141612942Y-111796542D01*
X141555800Y-111853685D01*
X141498657Y-111882257D01*
X142184371Y-111967971D02*
X142127228Y-111939400D01*
X142098657Y-111910828D01*
X142070085Y-111853685D01*
X142070085Y-111825114D01*
X142098657Y-111767971D01*
X142127228Y-111739400D01*
X142184371Y-111710828D01*
X142298657Y-111710828D01*
X142355800Y-111739400D01*
X142384371Y-111767971D01*
X142412942Y-111825114D01*
X142412942Y-111853685D01*
X142384371Y-111910828D01*
X142355800Y-111939400D01*
X142298657Y-111967971D01*
X142184371Y-111967971D01*
X142127228Y-111996542D01*
X142098657Y-112025114D01*
X142070085Y-112082257D01*
X142070085Y-112196542D01*
X142098657Y-112253685D01*
X142127228Y-112282257D01*
X142184371Y-112310828D01*
X142298657Y-112310828D01*
X142355800Y-112282257D01*
X142384371Y-112253685D01*
X142412942Y-112196542D01*
X142412942Y-112082257D01*
X142384371Y-112025114D01*
X142355800Y-111996542D01*
X142298657Y-111967971D01*
G04 #@! TO.C,J4*
X132894428Y-94611800D02*
X133323000Y-94611800D01*
X133408714Y-94640371D01*
X133465857Y-94697514D01*
X133494428Y-94783228D01*
X133494428Y-94840371D01*
X133094428Y-94068942D02*
X133494428Y-94068942D01*
X132865857Y-94211800D02*
X133294428Y-94354657D01*
X133294428Y-93983228D01*
G04 #@! TO.C,J6*
X148263000Y-105132228D02*
X148263000Y-105560800D01*
X148234428Y-105646514D01*
X148177285Y-105703657D01*
X148091571Y-105732228D01*
X148034428Y-105732228D01*
X148805857Y-105132228D02*
X148691571Y-105132228D01*
X148634428Y-105160800D01*
X148605857Y-105189371D01*
X148548714Y-105275085D01*
X148520142Y-105389371D01*
X148520142Y-105617942D01*
X148548714Y-105675085D01*
X148577285Y-105703657D01*
X148634428Y-105732228D01*
X148748714Y-105732228D01*
X148805857Y-105703657D01*
X148834428Y-105675085D01*
X148863000Y-105617942D01*
X148863000Y-105475085D01*
X148834428Y-105417942D01*
X148805857Y-105389371D01*
X148748714Y-105360800D01*
X148634428Y-105360800D01*
X148577285Y-105389371D01*
X148548714Y-105417942D01*
X148520142Y-105475085D01*
G04 #@! TO.C,J3*
X157991200Y-104751228D02*
X157991200Y-105179800D01*
X157962628Y-105265514D01*
X157905485Y-105322657D01*
X157819771Y-105351228D01*
X157762628Y-105351228D01*
X158219771Y-104751228D02*
X158591200Y-104751228D01*
X158391200Y-104979800D01*
X158476914Y-104979800D01*
X158534057Y-105008371D01*
X158562628Y-105036942D01*
X158591200Y-105094085D01*
X158591200Y-105236942D01*
X158562628Y-105294085D01*
X158534057Y-105322657D01*
X158476914Y-105351228D01*
X158305485Y-105351228D01*
X158248342Y-105322657D01*
X158219771Y-105294085D01*
G04 #@! TO.C,J5*
X164849200Y-104751228D02*
X164849200Y-105179800D01*
X164820628Y-105265514D01*
X164763485Y-105322657D01*
X164677771Y-105351228D01*
X164620628Y-105351228D01*
X165420628Y-104751228D02*
X165134914Y-104751228D01*
X165106342Y-105036942D01*
X165134914Y-105008371D01*
X165192057Y-104979800D01*
X165334914Y-104979800D01*
X165392057Y-105008371D01*
X165420628Y-105036942D01*
X165449200Y-105094085D01*
X165449200Y-105236942D01*
X165420628Y-105294085D01*
X165392057Y-105322657D01*
X165334914Y-105351228D01*
X165192057Y-105351228D01*
X165134914Y-105322657D01*
X165106342Y-105294085D01*
G04 #@! TO.C,L1*
X144901218Y-90216739D02*
X144699187Y-90418770D01*
X144274923Y-89994506D01*
X145264873Y-89853084D02*
X145022436Y-90095521D01*
X145143654Y-89974303D02*
X144719390Y-89550038D01*
X144739593Y-89651054D01*
X144739593Y-89731866D01*
X144719390Y-89792475D01*
G04 #@! TO.C,D1*
X140889140Y-99606764D02*
X141313404Y-99182500D01*
X141414420Y-99283515D01*
X141454826Y-99364328D01*
X141454826Y-99445140D01*
X141434623Y-99505749D01*
X141374013Y-99606764D01*
X141313404Y-99667373D01*
X141212389Y-99727983D01*
X141151780Y-99748186D01*
X141070968Y-99748186D01*
X140990155Y-99707779D01*
X140889140Y-99606764D01*
X141535638Y-100253262D02*
X141293201Y-100010825D01*
X141414420Y-100132044D02*
X141838684Y-99707779D01*
X141737668Y-99727982D01*
X141656856Y-99727982D01*
X141596247Y-99707779D01*
G04 #@! TO.C,U2*
X152552457Y-102922428D02*
X152552457Y-103408142D01*
X152581028Y-103465285D01*
X152609600Y-103493857D01*
X152666742Y-103522428D01*
X152781028Y-103522428D01*
X152838171Y-103493857D01*
X152866742Y-103465285D01*
X152895314Y-103408142D01*
X152895314Y-102922428D01*
X153152457Y-102979571D02*
X153181028Y-102951000D01*
X153238171Y-102922428D01*
X153381028Y-102922428D01*
X153438171Y-102951000D01*
X153466742Y-102979571D01*
X153495314Y-103036714D01*
X153495314Y-103093857D01*
X153466742Y-103179571D01*
X153123885Y-103522428D01*
X153495314Y-103522428D01*
G04 #@! TD*
M02*
