G04 #@! TF.GenerationSoftware,KiCad,Pcbnew,(5.0.0)*
G04 #@! TF.CreationDate,2018-09-19T20:05:00-03:00*
G04 #@! TF.ProjectId,Generic_Bluetooth_Board,47656E657269635F426C7565746F6F74,rev?*
G04 #@! TF.SameCoordinates,Original*
G04 #@! TF.FileFunction,Soldermask,Top*
G04 #@! TF.FilePolarity,Negative*
%FSLAX46Y46*%
G04 Gerber Fmt 4.6, Leading zero omitted, Abs format (unit mm)*
G04 Created by KiCad (PCBNEW (5.0.0)) date 09/19/18 20:05:00*
%MOMM*%
%LPD*%
G01*
G04 APERTURE LIST*
%ADD10R,2.000000X1.160000*%
%ADD11C,0.360000*%
%ADD12C,0.900000*%
%ADD13C,0.100000*%
%ADD14R,1.000000X0.900000*%
%ADD15R,0.900000X1.000000*%
%ADD16C,0.800000*%
%ADD17R,1.000000X0.800000*%
%ADD18R,0.800000X1.000000*%
%ADD19R,2.900000X2.900000*%
%ADD20C,2.125000*%
%ADD21C,0.650000*%
%ADD22R,1.960000X1.050000*%
%ADD23C,1.400000*%
%ADD24C,2.200000*%
%ADD25R,2.750000X1.250000*%
%ADD26R,0.850000X1.850000*%
%ADD27R,1.250000X2.750000*%
%ADD28C,1.100000*%
%ADD29C,1.200000*%
%ADD30R,1.050000X0.800000*%
G04 APERTURE END LIST*
D10*
G04 #@! TO.C,SW1*
X134518400Y-110769400D03*
X139598400Y-101879400D03*
X134518400Y-109499400D03*
X139598400Y-103149400D03*
X134518400Y-108229400D03*
X139598400Y-104419400D03*
X134518400Y-106959400D03*
X139598400Y-105689400D03*
X134518400Y-105689400D03*
X139598400Y-106959400D03*
X134518400Y-104419400D03*
X139598400Y-108229400D03*
X134518400Y-103149400D03*
X139598400Y-109499400D03*
X134518400Y-101879400D03*
X139598400Y-110769400D03*
G04 #@! TD*
D11*
G04 #@! TO.C,AE1*
X151511000Y-84201000D03*
G04 #@! TD*
D12*
G04 #@! TO.C,C1*
X142828991Y-93273591D03*
D13*
G36*
X143500742Y-93308946D02*
X142864346Y-93945342D01*
X142157240Y-93238236D01*
X142793636Y-92601840D01*
X143500742Y-93308946D01*
X143500742Y-93308946D01*
G37*
D12*
X143606809Y-94051409D03*
D13*
G36*
X144278560Y-94086764D02*
X143642164Y-94723160D01*
X142935058Y-94016054D01*
X143571454Y-93379658D01*
X144278560Y-94086764D01*
X144278560Y-94086764D01*
G37*
G04 #@! TD*
D12*
G04 #@! TO.C,C2*
X142844809Y-94813409D03*
D13*
G36*
X143516560Y-94848764D02*
X142880164Y-95485160D01*
X142173058Y-94778054D01*
X142809454Y-94141658D01*
X143516560Y-94848764D01*
X143516560Y-94848764D01*
G37*
D12*
X142066991Y-94035591D03*
D13*
G36*
X142738742Y-94070946D02*
X142102346Y-94707342D01*
X141395240Y-94000236D01*
X142031636Y-93363840D01*
X142738742Y-94070946D01*
X142738742Y-94070946D01*
G37*
G04 #@! TD*
D12*
G04 #@! TO.C,C3*
X143540191Y-92489309D03*
D13*
G36*
X143575546Y-91817558D02*
X144211942Y-92453954D01*
X143504836Y-93161060D01*
X142868440Y-92524664D01*
X143575546Y-91817558D01*
X143575546Y-91817558D01*
G37*
D12*
X144318009Y-91711491D03*
D13*
G36*
X144353364Y-91039740D02*
X144989760Y-91676136D01*
X144282654Y-92383242D01*
X143646258Y-91746846D01*
X144353364Y-91039740D01*
X144353364Y-91039740D01*
G37*
G04 #@! TD*
D12*
G04 #@! TO.C,C4*
X145080009Y-92473491D03*
D13*
G36*
X145115364Y-91801740D02*
X145751760Y-92438136D01*
X145044654Y-93145242D01*
X144408258Y-92508846D01*
X145115364Y-91801740D01*
X145115364Y-91801740D01*
G37*
D12*
X144302191Y-93251309D03*
D13*
G36*
X144337546Y-92579558D02*
X144973942Y-93215954D01*
X144266836Y-93923060D01*
X143630440Y-93286664D01*
X144337546Y-92579558D01*
X144337546Y-92579558D01*
G37*
G04 #@! TD*
D12*
G04 #@! TO.C,C5*
X151582409Y-89146091D03*
D13*
G36*
X151547054Y-89817842D02*
X150910658Y-89181446D01*
X151617764Y-88474340D01*
X152254160Y-89110736D01*
X151547054Y-89817842D01*
X151547054Y-89817842D01*
G37*
D12*
X150804591Y-89923909D03*
D13*
G36*
X150769236Y-90595660D02*
X150132840Y-89959264D01*
X150839946Y-89252158D01*
X151476342Y-89888554D01*
X150769236Y-90595660D01*
X150769236Y-90595660D01*
G37*
G04 #@! TD*
D12*
G04 #@! TO.C,C6*
X153296909Y-87431591D03*
D13*
G36*
X153332264Y-86759840D02*
X153968660Y-87396236D01*
X153261554Y-88103342D01*
X152625158Y-87466946D01*
X153332264Y-86759840D01*
X153332264Y-86759840D01*
G37*
D12*
X152519091Y-88209409D03*
D13*
G36*
X152554446Y-87537658D02*
X153190842Y-88174054D01*
X152483736Y-88881160D01*
X151847340Y-88244764D01*
X152554446Y-87537658D01*
X152554446Y-87537658D01*
G37*
G04 #@! TD*
D12*
G04 #@! TO.C,C7*
X149804409Y-90749409D03*
D13*
G36*
X150476160Y-90784764D02*
X149839764Y-91421160D01*
X149132658Y-90714054D01*
X149769054Y-90077658D01*
X150476160Y-90784764D01*
X150476160Y-90784764D01*
G37*
D12*
X149026591Y-89971591D03*
D13*
G36*
X149698342Y-90006946D02*
X149061946Y-90643342D01*
X148354840Y-89936236D01*
X148991236Y-89299840D01*
X149698342Y-90006946D01*
X149698342Y-90006946D01*
G37*
G04 #@! TD*
D12*
G04 #@! TO.C,C8*
X149042409Y-91511409D03*
D13*
G36*
X149714160Y-91546764D02*
X149077764Y-92183160D01*
X148370658Y-91476054D01*
X149007054Y-90839658D01*
X149714160Y-91546764D01*
X149714160Y-91546764D01*
G37*
D12*
X148264591Y-90733591D03*
D13*
G36*
X148936342Y-90768946D02*
X148299946Y-91405342D01*
X147592840Y-90698236D01*
X148229236Y-90061840D01*
X148936342Y-90768946D01*
X148936342Y-90768946D01*
G37*
G04 #@! TD*
D12*
G04 #@! TO.C,C9*
X154360591Y-90558909D03*
D13*
G36*
X154395946Y-89887158D02*
X155032342Y-90523554D01*
X154325236Y-91230660D01*
X153688840Y-90594264D01*
X154395946Y-89887158D01*
X154395946Y-89887158D01*
G37*
D12*
X155138409Y-89781091D03*
D13*
G36*
X155173764Y-89109340D02*
X155810160Y-89745736D01*
X155103054Y-90452842D01*
X154466658Y-89816446D01*
X155173764Y-89109340D01*
X155173764Y-89109340D01*
G37*
G04 #@! TD*
D12*
G04 #@! TO.C,C10*
X154932091Y-91574909D03*
D13*
G36*
X154967446Y-90903158D02*
X155603842Y-91539554D01*
X154896736Y-92246660D01*
X154260340Y-91610264D01*
X154967446Y-90903158D01*
X154967446Y-90903158D01*
G37*
D12*
X155709909Y-90797091D03*
D13*
G36*
X155745264Y-90125340D02*
X156381660Y-90761736D01*
X155674554Y-91468842D01*
X155038158Y-90832446D01*
X155745264Y-90125340D01*
X155745264Y-90125340D01*
G37*
G04 #@! TD*
D12*
G04 #@! TO.C,C11*
X154630409Y-93416409D03*
D13*
G36*
X153958658Y-93381054D02*
X154595054Y-92744658D01*
X155302160Y-93451764D01*
X154665764Y-94088160D01*
X153958658Y-93381054D01*
X153958658Y-93381054D01*
G37*
D12*
X153852591Y-92638591D03*
D13*
G36*
X153180840Y-92603236D02*
X153817236Y-91966840D01*
X154524342Y-92673946D01*
X153887946Y-93310342D01*
X153180840Y-92603236D01*
X153180840Y-92603236D01*
G37*
G04 #@! TD*
D12*
G04 #@! TO.C,C12*
X156075091Y-86352091D03*
D13*
G36*
X155403340Y-86316736D02*
X156039736Y-85680340D01*
X156746842Y-86387446D01*
X156110446Y-87023842D01*
X155403340Y-86316736D01*
X155403340Y-86316736D01*
G37*
D12*
X156852909Y-87129909D03*
D13*
G36*
X156181158Y-87094554D02*
X156817554Y-86458158D01*
X157524660Y-87165264D01*
X156888264Y-87801660D01*
X156181158Y-87094554D01*
X156181158Y-87094554D01*
G37*
G04 #@! TD*
D14*
G04 #@! TO.C,C13*
X158347500Y-88265000D03*
X157247500Y-88265000D03*
G04 #@! TD*
D12*
G04 #@! TO.C,C14*
X156154409Y-84764591D03*
D13*
G36*
X156119054Y-85436342D02*
X155482658Y-84799946D01*
X156189764Y-84092840D01*
X156826160Y-84729236D01*
X156119054Y-85436342D01*
X156119054Y-85436342D01*
G37*
D12*
X155376591Y-85542409D03*
D13*
G36*
X155341236Y-86214160D02*
X154704840Y-85577764D01*
X155411946Y-84870658D01*
X156048342Y-85507054D01*
X155341236Y-86214160D01*
X155341236Y-86214160D01*
G37*
G04 #@! TD*
D12*
G04 #@! TO.C,C15*
X153360409Y-84002591D03*
D13*
G36*
X153325054Y-84674342D02*
X152688658Y-84037946D01*
X153395764Y-83330840D01*
X154032160Y-83967236D01*
X153325054Y-84674342D01*
X153325054Y-84674342D01*
G37*
D12*
X152582591Y-84780409D03*
D13*
G36*
X152547236Y-85452160D02*
X151910840Y-84815764D01*
X152617946Y-84108658D01*
X153254342Y-84745054D01*
X152547236Y-85452160D01*
X152547236Y-85452160D01*
G37*
G04 #@! TD*
D12*
G04 #@! TO.C,C16*
X156217909Y-95051591D03*
D13*
G36*
X156182554Y-95723342D02*
X155546158Y-95086946D01*
X156253264Y-94379840D01*
X156889660Y-95016236D01*
X156182554Y-95723342D01*
X156182554Y-95723342D01*
G37*
D12*
X155440091Y-95829409D03*
D13*
G36*
X155404736Y-96501160D02*
X154768340Y-95864764D01*
X155475446Y-95157658D01*
X156111842Y-95794054D01*
X155404736Y-96501160D01*
X155404736Y-96501160D01*
G37*
G04 #@! TD*
D12*
G04 #@! TO.C,C17*
X156202091Y-96591409D03*
D13*
G36*
X156166736Y-97263160D02*
X155530340Y-96626764D01*
X156237446Y-95919658D01*
X156873842Y-96556054D01*
X156166736Y-97263160D01*
X156166736Y-97263160D01*
G37*
D12*
X156979909Y-95813591D03*
D13*
G36*
X156944554Y-96485342D02*
X156308158Y-95848946D01*
X157015264Y-95141840D01*
X157651660Y-95778236D01*
X156944554Y-96485342D01*
X156944554Y-96485342D01*
G37*
G04 #@! TD*
D14*
G04 #@! TO.C,C18*
X145779400Y-102412800D03*
X146879400Y-102412800D03*
G04 #@! TD*
G04 #@! TO.C,C19*
X146879400Y-101320600D03*
X145779400Y-101320600D03*
G04 #@! TD*
D12*
G04 #@! TO.C,C20*
X155440091Y-94178409D03*
D13*
G36*
X155404736Y-94850160D02*
X154768340Y-94213764D01*
X155475446Y-93506658D01*
X156111842Y-94143054D01*
X155404736Y-94850160D01*
X155404736Y-94850160D01*
G37*
D12*
X156217909Y-93400591D03*
D13*
G36*
X156182554Y-94072342D02*
X155546158Y-93435946D01*
X156253264Y-92728840D01*
X156889660Y-93365236D01*
X156182554Y-94072342D01*
X156182554Y-94072342D01*
G37*
G04 #@! TD*
D12*
G04 #@! TO.C,C21*
X160697891Y-101379309D03*
D13*
G36*
X160662536Y-102051060D02*
X160026140Y-101414664D01*
X160733246Y-100707558D01*
X161369642Y-101343954D01*
X160662536Y-102051060D01*
X160662536Y-102051060D01*
G37*
D12*
X161475709Y-100601491D03*
D13*
G36*
X161440354Y-101273242D02*
X160803958Y-100636846D01*
X161511064Y-99929740D01*
X162147460Y-100566136D01*
X161440354Y-101273242D01*
X161440354Y-101273242D01*
G37*
G04 #@! TD*
D12*
G04 #@! TO.C,C22*
X158742091Y-95067409D03*
D13*
G36*
X158706736Y-95739160D02*
X158070340Y-95102764D01*
X158777446Y-94395658D01*
X159413842Y-95032054D01*
X158706736Y-95739160D01*
X158706736Y-95739160D01*
G37*
D12*
X159519909Y-94289591D03*
D13*
G36*
X159484554Y-94961342D02*
X158848158Y-94324946D01*
X159555264Y-93617840D01*
X160191660Y-94254236D01*
X159484554Y-94961342D01*
X159484554Y-94961342D01*
G37*
G04 #@! TD*
D15*
G04 #@! TO.C,C23*
X151257000Y-105248800D03*
X151257000Y-104148800D03*
G04 #@! TD*
G04 #@! TO.C,C24*
X133921500Y-91672500D03*
X133921500Y-90572500D03*
G04 #@! TD*
D14*
G04 #@! TO.C,C25*
X141647000Y-90678000D03*
X140547000Y-90678000D03*
G04 #@! TD*
D12*
G04 #@! TO.C,C26*
X155313091Y-101820691D03*
D13*
G36*
X154641340Y-101785336D02*
X155277736Y-101148940D01*
X155984842Y-101856046D01*
X155348446Y-102492442D01*
X154641340Y-101785336D01*
X154641340Y-101785336D01*
G37*
D12*
X156090909Y-102598509D03*
D13*
G36*
X155419158Y-102563154D02*
X156055554Y-101926758D01*
X156762660Y-102633864D01*
X156126264Y-103270260D01*
X155419158Y-102563154D01*
X155419158Y-102563154D01*
G37*
G04 #@! TD*
D16*
G04 #@! TO.C,L2*
X153670698Y-91248802D03*
D13*
G36*
X153741409Y-91885198D02*
X153034302Y-91178091D01*
X153599987Y-90612406D01*
X154307094Y-91319513D01*
X153741409Y-91885198D01*
X153741409Y-91885198D01*
G37*
D16*
X153034302Y-91885198D03*
D13*
G36*
X153105013Y-92521594D02*
X152397906Y-91814487D01*
X152963591Y-91248802D01*
X153670698Y-91955909D01*
X153105013Y-92521594D01*
X153105013Y-92521594D01*
G37*
G04 #@! TD*
D17*
G04 #@! TO.C,L3*
X157289500Y-90175500D03*
X157289500Y-89275500D03*
G04 #@! TD*
D18*
G04 #@! TO.C,L4*
X153410500Y-85471000D03*
X154310500Y-85471000D03*
G04 #@! TD*
D16*
G04 #@! TO.C,L5*
X155764802Y-92266198D03*
D13*
G36*
X155835513Y-92902594D02*
X155128406Y-92195487D01*
X155694091Y-91629802D01*
X156401198Y-92336909D01*
X155835513Y-92902594D01*
X155835513Y-92902594D01*
G37*
D16*
X156401198Y-91629802D03*
D13*
G36*
X156471909Y-92266198D02*
X155764802Y-91559091D01*
X156330487Y-90993406D01*
X157037594Y-91700513D01*
X156471909Y-92266198D01*
X156471909Y-92266198D01*
G37*
G04 #@! TD*
D19*
G04 #@! TO.C,L6*
X135664000Y-86550500D03*
X139164000Y-86550500D03*
G04 #@! TD*
D18*
G04 #@! TO.C,R1*
X134271600Y-99847400D03*
X135171600Y-99847400D03*
G04 #@! TD*
D16*
G04 #@! TO.C,R2*
X144106202Y-95287402D03*
D13*
G36*
X143469806Y-95358113D02*
X144176913Y-94651006D01*
X144742598Y-95216691D01*
X144035491Y-95923798D01*
X143469806Y-95358113D01*
X143469806Y-95358113D01*
G37*
D16*
X144742598Y-95923798D03*
D13*
G36*
X144106202Y-95994509D02*
X144813309Y-95287402D01*
X145378994Y-95853087D01*
X144671887Y-96560194D01*
X144106202Y-95994509D01*
X144106202Y-95994509D01*
G37*
G04 #@! TD*
D16*
G04 #@! TO.C,R3*
X145631598Y-95034798D03*
D13*
G36*
X144995202Y-95105509D02*
X145702309Y-94398402D01*
X146267994Y-94964087D01*
X145560887Y-95671194D01*
X144995202Y-95105509D01*
X144995202Y-95105509D01*
G37*
D16*
X144995202Y-94398402D03*
D13*
G36*
X144358806Y-94469113D02*
X145065913Y-93762006D01*
X145631598Y-94327691D01*
X144924491Y-95034798D01*
X144358806Y-94469113D01*
X144358806Y-94469113D01*
G37*
G04 #@! TD*
D16*
G04 #@! TO.C,R4*
X142531402Y-97065402D03*
D13*
G36*
X143167798Y-96994691D02*
X142460691Y-97701798D01*
X141895006Y-97136113D01*
X142602113Y-96429006D01*
X143167798Y-96994691D01*
X143167798Y-96994691D01*
G37*
D16*
X143167798Y-97701798D03*
D13*
G36*
X143804194Y-97631087D02*
X143097087Y-98338194D01*
X142531402Y-97772509D01*
X143238509Y-97065402D01*
X143804194Y-97631087D01*
X143804194Y-97631087D01*
G37*
G04 #@! TD*
D18*
G04 #@! TO.C,R5*
X156710800Y-110337600D03*
X155810800Y-110337600D03*
G04 #@! TD*
G04 #@! TO.C,R6*
X155810800Y-111556800D03*
X156710800Y-111556800D03*
G04 #@! TD*
D16*
G04 #@! TO.C,R7*
X155028202Y-99503802D03*
D13*
G36*
X155664598Y-99433091D02*
X154957491Y-100140198D01*
X154391806Y-99574513D01*
X155098913Y-98867406D01*
X155664598Y-99433091D01*
X155664598Y-99433091D01*
G37*
D16*
X155664598Y-100140198D03*
D13*
G36*
X156300994Y-100069487D02*
X155593887Y-100776594D01*
X155028202Y-100210909D01*
X155735309Y-99503802D01*
X156300994Y-100069487D01*
X156300994Y-100069487D01*
G37*
G04 #@! TD*
D16*
G04 #@! TO.C,R8*
X154800998Y-101003798D03*
D13*
G36*
X155437394Y-100933087D02*
X154730287Y-101640194D01*
X154164602Y-101074509D01*
X154871709Y-100367402D01*
X155437394Y-100933087D01*
X155437394Y-100933087D01*
G37*
D16*
X154164602Y-100367402D03*
D13*
G36*
X154800998Y-100296691D02*
X154093891Y-101003798D01*
X153528206Y-100438113D01*
X154235313Y-99731006D01*
X154800998Y-100296691D01*
X154800998Y-100296691D01*
G37*
G04 #@! TD*
D16*
G04 #@! TO.C,R9*
X153301002Y-101231002D03*
D13*
G36*
X152664606Y-101301713D02*
X153371713Y-100594606D01*
X153937398Y-101160291D01*
X153230291Y-101867398D01*
X152664606Y-101301713D01*
X152664606Y-101301713D01*
G37*
D16*
X153937398Y-101867398D03*
D13*
G36*
X153301002Y-101938109D02*
X154008109Y-101231002D01*
X154573794Y-101796687D01*
X153866687Y-102503794D01*
X153301002Y-101938109D01*
X153301002Y-101938109D01*
G37*
G04 #@! TD*
D17*
G04 #@! TO.C,R10*
X150241000Y-105021800D03*
X150241000Y-104121800D03*
G04 #@! TD*
D16*
G04 #@! TO.C,R11*
X156832998Y-101714998D03*
D13*
G36*
X156196602Y-101785709D02*
X156903709Y-101078602D01*
X157469394Y-101644287D01*
X156762287Y-102351394D01*
X156196602Y-101785709D01*
X156196602Y-101785709D01*
G37*
D16*
X156196602Y-101078602D03*
D13*
G36*
X155560206Y-101149313D02*
X156267313Y-100442206D01*
X156832998Y-101007891D01*
X156125891Y-101714998D01*
X155560206Y-101149313D01*
X155560206Y-101149313D01*
G37*
G04 #@! TD*
D17*
G04 #@! TO.C,R12*
X140525500Y-91625000D03*
X140525500Y-92525000D03*
G04 #@! TD*
G04 #@! TO.C,R13*
X141732000Y-92525000D03*
X141732000Y-91625000D03*
G04 #@! TD*
D20*
G04 #@! TO.C,U1*
X149275241Y-96901000D03*
D13*
G36*
X149275241Y-98403602D02*
X147772639Y-96901000D01*
X149275241Y-95398398D01*
X150777843Y-96901000D01*
X149275241Y-98403602D01*
X149275241Y-98403602D01*
G37*
D20*
X150495000Y-98120759D03*
D13*
G36*
X150495000Y-99623361D02*
X148992398Y-98120759D01*
X150495000Y-96618157D01*
X151997602Y-98120759D01*
X150495000Y-99623361D01*
X150495000Y-99623361D01*
G37*
D20*
X150495000Y-95681241D03*
D13*
G36*
X150495000Y-97183843D02*
X148992398Y-95681241D01*
X150495000Y-94178639D01*
X151997602Y-95681241D01*
X150495000Y-97183843D01*
X150495000Y-97183843D01*
G37*
D20*
X151714759Y-96901000D03*
D13*
G36*
X151714759Y-98403602D02*
X150212157Y-96901000D01*
X151714759Y-95398398D01*
X153217361Y-96901000D01*
X151714759Y-98403602D01*
X151714759Y-98403602D01*
G37*
D21*
X147560507Y-96441381D03*
D13*
G36*
X148179225Y-96600480D02*
X147719606Y-97060099D01*
X146941789Y-96282282D01*
X147401408Y-95822663D01*
X148179225Y-96600480D01*
X148179225Y-96600480D01*
G37*
D21*
X147914060Y-96087827D03*
D13*
G36*
X148532778Y-96246926D02*
X148073159Y-96706545D01*
X147295342Y-95928728D01*
X147754961Y-95469109D01*
X148532778Y-96246926D01*
X148532778Y-96246926D01*
G37*
D21*
X148267614Y-95734274D03*
D13*
G36*
X148886332Y-95893373D02*
X148426713Y-96352992D01*
X147648896Y-95575175D01*
X148108515Y-95115556D01*
X148886332Y-95893373D01*
X148886332Y-95893373D01*
G37*
D21*
X148621167Y-95380720D03*
D13*
G36*
X149239885Y-95539819D02*
X148780266Y-95999438D01*
X148002449Y-95221621D01*
X148462068Y-94762002D01*
X149239885Y-95539819D01*
X149239885Y-95539819D01*
G37*
D21*
X148974720Y-95027167D03*
D13*
G36*
X149593438Y-95186266D02*
X149133819Y-95645885D01*
X148356002Y-94868068D01*
X148815621Y-94408449D01*
X149593438Y-95186266D01*
X149593438Y-95186266D01*
G37*
D21*
X149328274Y-94673614D03*
D13*
G36*
X149946992Y-94832713D02*
X149487373Y-95292332D01*
X148709556Y-94514515D01*
X149169175Y-94054896D01*
X149946992Y-94832713D01*
X149946992Y-94832713D01*
G37*
D21*
X149681827Y-94320060D03*
D13*
G36*
X150300545Y-94479159D02*
X149840926Y-94938778D01*
X149063109Y-94160961D01*
X149522728Y-93701342D01*
X150300545Y-94479159D01*
X150300545Y-94479159D01*
G37*
D21*
X150035381Y-93966507D03*
D13*
G36*
X150654099Y-94125606D02*
X150194480Y-94585225D01*
X149416663Y-93807408D01*
X149876282Y-93347789D01*
X150654099Y-94125606D01*
X150654099Y-94125606D01*
G37*
D21*
X150954619Y-93966507D03*
D13*
G36*
X150795520Y-94585225D02*
X150335901Y-94125606D01*
X151113718Y-93347789D01*
X151573337Y-93807408D01*
X150795520Y-94585225D01*
X150795520Y-94585225D01*
G37*
D21*
X151308173Y-94320060D03*
D13*
G36*
X151149074Y-94938778D02*
X150689455Y-94479159D01*
X151467272Y-93701342D01*
X151926891Y-94160961D01*
X151149074Y-94938778D01*
X151149074Y-94938778D01*
G37*
D21*
X151661726Y-94673614D03*
D13*
G36*
X151502627Y-95292332D02*
X151043008Y-94832713D01*
X151820825Y-94054896D01*
X152280444Y-94514515D01*
X151502627Y-95292332D01*
X151502627Y-95292332D01*
G37*
D21*
X152015280Y-95027167D03*
D13*
G36*
X151856181Y-95645885D02*
X151396562Y-95186266D01*
X152174379Y-94408449D01*
X152633998Y-94868068D01*
X151856181Y-95645885D01*
X151856181Y-95645885D01*
G37*
D21*
X152368833Y-95380720D03*
D13*
G36*
X152209734Y-95999438D02*
X151750115Y-95539819D01*
X152527932Y-94762002D01*
X152987551Y-95221621D01*
X152209734Y-95999438D01*
X152209734Y-95999438D01*
G37*
D21*
X152722386Y-95734274D03*
D13*
G36*
X152563287Y-96352992D02*
X152103668Y-95893373D01*
X152881485Y-95115556D01*
X153341104Y-95575175D01*
X152563287Y-96352992D01*
X152563287Y-96352992D01*
G37*
D21*
X153075940Y-96087827D03*
D13*
G36*
X152916841Y-96706545D02*
X152457222Y-96246926D01*
X153235039Y-95469109D01*
X153694658Y-95928728D01*
X152916841Y-96706545D01*
X152916841Y-96706545D01*
G37*
D21*
X153429493Y-96441381D03*
D13*
G36*
X153270394Y-97060099D02*
X152810775Y-96600480D01*
X153588592Y-95822663D01*
X154048211Y-96282282D01*
X153270394Y-97060099D01*
X153270394Y-97060099D01*
G37*
D21*
X153429493Y-97360619D03*
D13*
G36*
X154048211Y-97519718D02*
X153588592Y-97979337D01*
X152810775Y-97201520D01*
X153270394Y-96741901D01*
X154048211Y-97519718D01*
X154048211Y-97519718D01*
G37*
D21*
X153075940Y-97714173D03*
D13*
G36*
X153694658Y-97873272D02*
X153235039Y-98332891D01*
X152457222Y-97555074D01*
X152916841Y-97095455D01*
X153694658Y-97873272D01*
X153694658Y-97873272D01*
G37*
D21*
X152722386Y-98067726D03*
D13*
G36*
X153341104Y-98226825D02*
X152881485Y-98686444D01*
X152103668Y-97908627D01*
X152563287Y-97449008D01*
X153341104Y-98226825D01*
X153341104Y-98226825D01*
G37*
D21*
X152368833Y-98421280D03*
D13*
G36*
X152987551Y-98580379D02*
X152527932Y-99039998D01*
X151750115Y-98262181D01*
X152209734Y-97802562D01*
X152987551Y-98580379D01*
X152987551Y-98580379D01*
G37*
D21*
X152015280Y-98774833D03*
D13*
G36*
X152633998Y-98933932D02*
X152174379Y-99393551D01*
X151396562Y-98615734D01*
X151856181Y-98156115D01*
X152633998Y-98933932D01*
X152633998Y-98933932D01*
G37*
D21*
X151661726Y-99128386D03*
D13*
G36*
X152280444Y-99287485D02*
X151820825Y-99747104D01*
X151043008Y-98969287D01*
X151502627Y-98509668D01*
X152280444Y-99287485D01*
X152280444Y-99287485D01*
G37*
D21*
X151308173Y-99481940D03*
D13*
G36*
X151926891Y-99641039D02*
X151467272Y-100100658D01*
X150689455Y-99322841D01*
X151149074Y-98863222D01*
X151926891Y-99641039D01*
X151926891Y-99641039D01*
G37*
D21*
X150954619Y-99835493D03*
D13*
G36*
X151573337Y-99994592D02*
X151113718Y-100454211D01*
X150335901Y-99676394D01*
X150795520Y-99216775D01*
X151573337Y-99994592D01*
X151573337Y-99994592D01*
G37*
D21*
X150035381Y-99835493D03*
D13*
G36*
X149876282Y-100454211D02*
X149416663Y-99994592D01*
X150194480Y-99216775D01*
X150654099Y-99676394D01*
X149876282Y-100454211D01*
X149876282Y-100454211D01*
G37*
D21*
X149681827Y-99481940D03*
D13*
G36*
X149522728Y-100100658D02*
X149063109Y-99641039D01*
X149840926Y-98863222D01*
X150300545Y-99322841D01*
X149522728Y-100100658D01*
X149522728Y-100100658D01*
G37*
D21*
X149328274Y-99128386D03*
D13*
G36*
X149169175Y-99747104D02*
X148709556Y-99287485D01*
X149487373Y-98509668D01*
X149946992Y-98969287D01*
X149169175Y-99747104D01*
X149169175Y-99747104D01*
G37*
D21*
X148974720Y-98774833D03*
D13*
G36*
X148815621Y-99393551D02*
X148356002Y-98933932D01*
X149133819Y-98156115D01*
X149593438Y-98615734D01*
X148815621Y-99393551D01*
X148815621Y-99393551D01*
G37*
D21*
X148621167Y-98421280D03*
D13*
G36*
X148462068Y-99039998D02*
X148002449Y-98580379D01*
X148780266Y-97802562D01*
X149239885Y-98262181D01*
X148462068Y-99039998D01*
X148462068Y-99039998D01*
G37*
D21*
X148267614Y-98067726D03*
D13*
G36*
X148108515Y-98686444D02*
X147648896Y-98226825D01*
X148426713Y-97449008D01*
X148886332Y-97908627D01*
X148108515Y-98686444D01*
X148108515Y-98686444D01*
G37*
D21*
X147914060Y-97714173D03*
D13*
G36*
X147754961Y-98332891D02*
X147295342Y-97873272D01*
X148073159Y-97095455D01*
X148532778Y-97555074D01*
X147754961Y-98332891D01*
X147754961Y-98332891D01*
G37*
D21*
X147560507Y-97360619D03*
D13*
G36*
X147401408Y-97979337D02*
X146941789Y-97519718D01*
X147719606Y-96741901D01*
X148179225Y-97201520D01*
X147401408Y-97979337D01*
X147401408Y-97979337D01*
G37*
G04 #@! TD*
D22*
G04 #@! TO.C,U3*
X138590000Y-90680500D03*
X138590000Y-89730500D03*
X138590000Y-91630500D03*
X135890000Y-91630500D03*
X135890000Y-90680500D03*
X135890000Y-89730500D03*
G04 #@! TD*
D23*
G04 #@! TO.C,Y1*
X151696383Y-86555617D03*
D13*
G36*
X151413540Y-85282825D02*
X152969175Y-86838460D01*
X151979226Y-87828409D01*
X150423591Y-86272774D01*
X151413540Y-85282825D01*
X151413540Y-85282825D01*
G37*
D23*
X149928617Y-88323383D03*
D13*
G36*
X149645774Y-87050591D02*
X151201409Y-88606226D01*
X150211460Y-89596175D01*
X148655825Y-88040540D01*
X149645774Y-87050591D01*
X149645774Y-87050591D01*
G37*
G04 #@! TD*
D24*
G04 #@! TO.C,Y2*
X161540978Y-98022368D03*
D13*
G36*
X161647044Y-96360667D02*
X163202679Y-97916302D01*
X161434912Y-99684069D01*
X159879277Y-98128434D01*
X161647044Y-96360667D01*
X161647044Y-96360667D01*
G37*
D24*
X159490368Y-100072978D03*
D13*
G36*
X159596434Y-98411277D02*
X161152069Y-99966912D01*
X159384302Y-101734679D01*
X157828667Y-100179044D01*
X159596434Y-98411277D01*
X159596434Y-98411277D01*
G37*
D24*
X157864022Y-98446632D03*
D13*
G36*
X157970088Y-96784931D02*
X159525723Y-98340566D01*
X157757956Y-100108333D01*
X156202321Y-98552698D01*
X157970088Y-96784931D01*
X157970088Y-96784931D01*
G37*
D24*
X159914632Y-96396022D03*
D13*
G36*
X160020698Y-94734321D02*
X161576333Y-96289956D01*
X159808566Y-98057723D01*
X158252931Y-96502088D01*
X160020698Y-94734321D01*
X160020698Y-94734321D01*
G37*
G04 #@! TD*
D18*
G04 #@! TO.C,R14*
X161703600Y-104648000D03*
X162603600Y-104648000D03*
G04 #@! TD*
G04 #@! TO.C,R15*
X161703600Y-103428800D03*
X162603600Y-103428800D03*
G04 #@! TD*
D25*
G04 #@! TO.C,J1*
X155327600Y-108855000D03*
X152977600Y-110855000D03*
G04 #@! TD*
G04 #@! TO.C,J2*
X164598600Y-93560400D03*
X164598600Y-89560400D03*
X164598600Y-85560400D03*
X162248600Y-91560400D03*
X162248600Y-87560400D03*
G04 #@! TD*
D14*
G04 #@! TO.C,C27*
X161840000Y-84328000D03*
X160740000Y-84328000D03*
G04 #@! TD*
D18*
G04 #@! TO.C,R16*
X161740000Y-85471000D03*
X160840000Y-85471000D03*
G04 #@! TD*
D17*
G04 #@! TO.C,R17*
X147345400Y-110548000D03*
X147345400Y-111448000D03*
G04 #@! TD*
D26*
G04 #@! TO.C,U4*
X143474800Y-105250400D03*
X144124800Y-105250400D03*
X144774800Y-105250400D03*
X145424800Y-105250400D03*
X145424800Y-111150400D03*
X144774800Y-111150400D03*
X144124800Y-111150400D03*
X143474800Y-111150400D03*
G04 #@! TD*
D17*
G04 #@! TO.C,R18*
X141351000Y-111150400D03*
X141351000Y-110250400D03*
G04 #@! TD*
D27*
G04 #@! TO.C,J4*
X139855200Y-95141800D03*
X135855200Y-95141800D03*
X137855200Y-97491800D03*
X133855200Y-97491800D03*
G04 #@! TD*
D25*
G04 #@! TO.C,J6*
X151695400Y-108813600D03*
X149345400Y-110813600D03*
X149345400Y-106813600D03*
G04 #@! TD*
G04 #@! TO.C,J3*
X160712400Y-108864400D03*
X158362400Y-110864400D03*
X158362400Y-106864400D03*
G04 #@! TD*
G04 #@! TO.C,J5*
X162604200Y-106864400D03*
X162604200Y-110864400D03*
X164954200Y-108864400D03*
G04 #@! TD*
D28*
G04 #@! TO.C,L1*
X145505249Y-90742849D03*
D13*
G36*
X146495198Y-90530717D02*
X145293117Y-91732798D01*
X144515300Y-90954981D01*
X145717381Y-89752900D01*
X146495198Y-90530717D01*
X146495198Y-90530717D01*
G37*
D28*
X146848751Y-92086351D03*
D13*
G36*
X147838700Y-91874219D02*
X146636619Y-93076300D01*
X145858802Y-92298483D01*
X147060883Y-91096402D01*
X147838700Y-91874219D01*
X147838700Y-91874219D01*
G37*
G04 #@! TD*
D29*
G04 #@! TO.C,D1*
X142843785Y-99409785D03*
D13*
G36*
X141995257Y-99409785D02*
X142843785Y-98561257D01*
X143692313Y-99409785D01*
X142843785Y-100258313D01*
X141995257Y-99409785D01*
X141995257Y-99409785D01*
G37*
D29*
X141712415Y-98278415D03*
D13*
G36*
X140863887Y-98278415D02*
X141712415Y-97429887D01*
X142560943Y-98278415D01*
X141712415Y-99126943D01*
X140863887Y-98278415D01*
X140863887Y-98278415D01*
G37*
G04 #@! TD*
D30*
G04 #@! TO.C,U2*
X153228000Y-105552000D03*
X153228000Y-104252000D03*
X155128000Y-104902000D03*
X155128000Y-104252000D03*
X155128000Y-105552000D03*
G04 #@! TD*
M02*
