M48
;DRILL file {KiCad (5.0.0)} date 09/19/18 20:04:53
;FORMAT={-:-/ absolute / inch / decimal}
FMAT,2
INCH,TZ
T1C0.0157
%
G90
G05
M72
T1
X5.241Y-4.286
X5.242Y-4.086
X5.242Y-4.186
X5.249Y-3.355
X5.249Y-4.409
X5.25Y-3.497
X5.264Y-3.768
X5.3Y-3.676
X5.321Y-3.87
X5.333Y-3.675
X5.355Y-4.355
X5.367Y-3.675
X5.394Y-3.904
X5.407Y-4.351
X5.408Y-3.484
X5.421Y-3.717
X5.4257Y-3.9358
X5.4552Y-3.9652
X5.475Y-3.864
X5.498Y-4.421
X5.509Y-3.836
X5.511Y-3.682
X5.555Y-3.5125
X5.556Y-3.48
X5.5614Y-4.261
X5.565Y-4.01
X5.565Y-4.06
X5.565Y-4.11
X5.565Y-4.16
X5.565Y-4.211
X5.565Y-4.308
X5.582Y-3.764
X5.596Y-3.371
X5.6Y-4.19
X5.625Y-4.065
X5.627Y-3.611
X5.664Y-3.87
X5.68Y-3.811
X5.683Y-3.501
X5.692Y-4.289
X5.707Y-4.21
X5.725Y-3.895
X5.738Y-3.413
X5.7471Y-4.0939
X5.755Y-3.8665
X5.7621Y-3.9235
X5.765Y-4.174
X5.772Y-3.752
X5.7744Y-3.8322
X5.778Y-3.543
X5.792Y-3.7175
X5.801Y-4.316
X5.8026Y-3.9521
X5.814Y-4.272
X5.874Y-3.367
X5.874Y-4.1
X5.881Y-4.421
X5.882Y-3.791
X5.903Y-3.827
X5.92Y-3.98
X5.922Y-3.673
X5.925Y-3.791
X5.926Y-3.863
X5.949Y-3.826
X5.9551Y-4.0045
X5.958Y-4.224
X5.973Y-3.792
X5.974Y-4.344
X5.99Y-4.174
X5.995Y-4.005
X6.023Y-4.344
X6.025Y-3.945
X6.0384Y-3.8992
X6.068Y-4.07
X6.073Y-4.161
X6.0794Y-3.7325
X6.092Y-3.408
X6.0929Y-4.0309
X6.102Y-4.231
X6.103Y-4.345
X6.103Y-4.391
X6.1158Y-3.895
X6.12Y-3.492
X6.1487Y-4.2367
X6.159Y-3.941
X6.182Y-3.369
X6.197Y-4.263
X6.2078Y-4.0948
X6.211Y-3.902
X6.218Y-3.408
X6.236Y-3.687
X6.24Y-3.522
X6.29Y-4.065
X6.31Y-4.195
X6.316Y-4.414
X6.32Y-4.333
X6.333Y-3.688
X6.377Y-3.999
X6.378Y-3.541
X6.385Y-3.755
X6.3877Y-3.4473
X6.411Y-4.286
X6.438Y-4.07
X6.48Y-3.575
X6.516Y-3.469
X6.519Y-4.381
X6.538Y-4.206
X6.547Y-3.613
X6.549Y-3.995
X6.558Y-3.355
T0
M30
